<?xml version="1.0" encoding="UTF-8"?>
<!DOCTYPE svg PUBLIC "-//W3C//DTD SVG 1.1//EN" "http://www.w3.org/Graphics/SVG/1.1/DTD/svg11.dtd">
<svg width="252mm" height="128mm" viewBox="0 0 25200 12800" version="1.1" xmlns="http://www.w3.org/2000/svg" xmlns:xlink="http://www.w3.org/1999/xlink" stroke-width="28.222" stroke-linejoin="round" xml:space="preserve">
 <path fill="none" stroke="none" d="M 12582,12762 L -13,12762 -13,-13 25176,-13 25176,12762 12582,12762 Z"/>
 <path fill="none" stroke="rgb(253,215,0)" stroke-linejoin="round" d="M 13749,11807 L 2826,11807 2826,441 24673,441 24673,11807 13749,11807 Z"/>
 <path fill="none" stroke="rgb(253,215,0)" stroke-linejoin="round" d="M 24673,11806 L 2826,11806"/>
 <path fill="none" stroke="rgb(253,215,0)" stroke-linejoin="round" d="M 24673,10669 L 2826,10669"/>
 <path fill="none" stroke="rgb(253,215,0)" stroke-linejoin="round" d="M 24673,9532 L 2826,9532"/>
 <path fill="none" stroke="rgb(253,215,0)" stroke-linejoin="round" d="M 24673,8395 L 2826,8395"/>
 <path fill="none" stroke="rgb(253,215,0)" stroke-linejoin="round" d="M 24673,7259 L 2826,7259"/>
 <path fill="none" stroke="rgb(253,215,0)" stroke-linejoin="round" d="M 24673,6123 L 2826,6123"/>
 <path fill="none" stroke="rgb(253,215,0)" stroke-linejoin="round" d="M 24673,4986 L 2826,4986"/>
 <path fill="none" stroke="rgb(253,215,0)" stroke-linejoin="round" d="M 24673,3850 L 2826,3850"/>
 <path fill="none" stroke="rgb(253,215,0)" stroke-linejoin="round" d="M 24673,2713 L 2826,2713"/>
 <path fill="none" stroke="rgb(253,215,0)" stroke-linejoin="round" d="M 24673,1576 L 2826,1576"/>
 <path fill="none" stroke="rgb(253,215,0)" stroke-linejoin="round" d="M 24673,440 L 2826,440"/>
 <path fill="none" stroke="rgb(253,215,0)" stroke-linejoin="round" d="M 2826,11956 L 2826,11806"/>
 <path fill="none" stroke="rgb(253,215,0)" stroke-linejoin="round" d="M 2826,11956 L 2826,11806"/>
 <path fill="none" stroke="rgb(253,215,0)" stroke-linejoin="round" d="M 7195,11956 L 7195,11806"/>
 <path fill="none" stroke="rgb(253,215,0)" stroke-linejoin="round" d="M 7195,11956 L 7195,11806"/>
 <path fill="none" stroke="rgb(253,215,0)" stroke-linejoin="round" d="M 11565,11956 L 11565,11806"/>
 <path fill="none" stroke="rgb(253,215,0)" stroke-linejoin="round" d="M 11565,11956 L 11565,11806"/>
 <path fill="none" stroke="rgb(253,215,0)" stroke-linejoin="round" d="M 15933,11956 L 15933,11806"/>
 <path fill="none" stroke="rgb(253,215,0)" stroke-linejoin="round" d="M 15933,11956 L 15933,11806"/>
 <path fill="none" stroke="rgb(253,215,0)" stroke-linejoin="round" d="M 20303,11956 L 20303,11806"/>
 <path fill="none" stroke="rgb(253,215,0)" stroke-linejoin="round" d="M 20303,11956 L 20303,11806"/>
 <path fill="none" stroke="rgb(253,215,0)" stroke-linejoin="round" d="M 24673,11956 L 24673,11806"/>
 <path fill="none" stroke="rgb(253,215,0)" stroke-linejoin="round" d="M 24673,11956 L 24673,11806"/>
 <path fill="none" stroke="rgb(253,215,0)" stroke-linejoin="round" d="M 2826,11806 L 24673,11806"/>
 <path fill="none" stroke="rgb(253,215,0)" stroke-linejoin="round" d="M 2676,11806 L 2826,11806"/>
 <path fill="none" stroke="rgb(253,215,0)" stroke-linejoin="round" d="M 2676,11806 L 2826,11806"/>
 <path fill="none" stroke="rgb(253,215,0)" stroke-linejoin="round" d="M 2676,10669 L 2826,10669"/>
 <path fill="none" stroke="rgb(253,215,0)" stroke-linejoin="round" d="M 2676,10669 L 2826,10669"/>
 <path fill="none" stroke="rgb(253,215,0)" stroke-linejoin="round" d="M 2676,9532 L 2826,9532"/>
 <path fill="none" stroke="rgb(253,215,0)" stroke-linejoin="round" d="M 2676,9532 L 2826,9532"/>
 <path fill="none" stroke="rgb(253,215,0)" stroke-linejoin="round" d="M 2676,8395 L 2826,8395"/>
 <path fill="none" stroke="rgb(253,215,0)" stroke-linejoin="round" d="M 2676,8395 L 2826,8395"/>
 <path fill="none" stroke="rgb(253,215,0)" stroke-linejoin="round" d="M 2676,7259 L 2826,7259"/>
 <path fill="none" stroke="rgb(253,215,0)" stroke-linejoin="round" d="M 2676,7259 L 2826,7259"/>
 <path fill="none" stroke="rgb(253,215,0)" stroke-linejoin="round" d="M 2676,6123 L 2826,6123"/>
 <path fill="none" stroke="rgb(253,215,0)" stroke-linejoin="round" d="M 2676,6123 L 2826,6123"/>
 <path fill="none" stroke="rgb(253,215,0)" stroke-linejoin="round" d="M 2676,4986 L 2826,4986"/>
 <path fill="none" stroke="rgb(253,215,0)" stroke-linejoin="round" d="M 2676,4986 L 2826,4986"/>
 <path fill="none" stroke="rgb(253,215,0)" stroke-linejoin="round" d="M 2676,3850 L 2826,3850"/>
 <path fill="none" stroke="rgb(253,215,0)" stroke-linejoin="round" d="M 2676,3850 L 2826,3850"/>
 <path fill="none" stroke="rgb(253,215,0)" stroke-linejoin="round" d="M 2676,2713 L 2826,2713"/>
 <path fill="none" stroke="rgb(253,215,0)" stroke-linejoin="round" d="M 2676,2713 L 2826,2713"/>
 <path fill="none" stroke="rgb(253,215,0)" stroke-linejoin="round" d="M 2676,1576 L 2826,1576"/>
 <path fill="none" stroke="rgb(253,215,0)" stroke-linejoin="round" d="M 2676,1576 L 2826,1576"/>
 <path fill="none" stroke="rgb(253,215,0)" stroke-linejoin="round" d="M 2676,440 L 2826,440"/>
 <path fill="none" stroke="rgb(253,215,0)" stroke-linejoin="round" d="M 2676,440 L 2826,440"/>
 <path fill="none" stroke="rgb(253,215,0)" stroke-linejoin="round" d="M 2826,11806 L 2826,440"/>
 <path fill="rgb(27,61,47)" stroke="none" d="M 21395,11806 L 23580,11806 23580,1536 21395,1536 21395,11806 Z"/>
 <path fill="rgb(27,61,47)" stroke="none" d="M 17026,11806 L 19211,11806 19211,2457 17026,2457 17026,11806 Z"/>
 <path fill="rgb(27,61,47)" stroke="none" d="M 12656,11806 L 14841,11806 14841,4877 12656,4877 12656,11806 Z"/>
 <path fill="rgb(27,61,47)" stroke="none" d="M 8288,11806 L 10472,11806 10472,8349 8288,8349 8288,11806 Z"/>
 <path fill="rgb(27,61,47)" stroke="none" d="M 3918,11806 L 6103,11806 6103,3419 3918,3419 3918,11806 Z"/>
 <path fill="none" stroke="rgb(159,144,101)" stroke-width="100" stroke-linejoin="round" d="M 5010,4435 L 5010,3419 5010,2403"/>
 <path fill="none" stroke="rgb(159,144,101)" stroke-width="100" stroke-linejoin="round" d="M 5110,4435 L 4910,4435"/>
 <path fill="none" stroke="rgb(159,144,101)" stroke-width="100" stroke-linejoin="round" d="M 4910,2403 L 5110,2403"/>
 <path fill="none" stroke="rgb(159,144,101)" stroke-width="100" stroke-linejoin="round" d="M 9380,8836 L 9380,8349 9380,7861"/>
 <path fill="none" stroke="rgb(159,144,101)" stroke-width="100" stroke-linejoin="round" d="M 9480,8836 L 9280,8836"/>
 <path fill="none" stroke="rgb(159,144,101)" stroke-width="100" stroke-linejoin="round" d="M 9280,7861 L 9480,7861"/>
 <path fill="none" stroke="rgb(159,144,101)" stroke-width="100" stroke-linejoin="round" d="M 13749,5764 L 13749,4877 13749,3991"/>
 <path fill="none" stroke="rgb(159,144,101)" stroke-width="100" stroke-linejoin="round" d="M 13849,5764 L 13649,5764"/>
 <path fill="none" stroke="rgb(159,144,101)" stroke-width="100" stroke-linejoin="round" d="M 13649,3991 L 13849,3991"/>
 <path fill="none" stroke="rgb(159,144,101)" stroke-width="100" stroke-linejoin="round" d="M 18118,3005 L 18118,2457 18118,1909"/>
 <path fill="none" stroke="rgb(159,144,101)" stroke-width="100" stroke-linejoin="round" d="M 18218,3005 L 18018,3005"/>
 <path fill="none" stroke="rgb(159,144,101)" stroke-width="100" stroke-linejoin="round" d="M 18018,1909 L 18218,1909"/>
 <path fill="none" stroke="rgb(159,144,101)" stroke-width="100" stroke-linejoin="round" d="M 22488,2057 L 22488,1536 22488,1016"/>
 <path fill="none" stroke="rgb(159,144,101)" stroke-width="100" stroke-linejoin="round" d="M 22588,2057 L 22388,2057"/>
 <path fill="none" stroke="rgb(159,144,101)" stroke-width="100" stroke-linejoin="round" d="M 22388,1016 L 22588,1016"/>
 <text class="SVGTextShape"><tspan class="TextParagraph" font-family="Liberation Sans, sans-serif" font-size="423px" font-weight="700"><tspan class="TextPosition" x="3078" y="12426"><tspan fill="rgb(159,144,101)" stroke="none" style="white-space: pre">streamFoldChunks</tspan></tspan></tspan></text>
 <text class="SVGTextShape"><tspan class="TextParagraph" font-family="Liberation Sans, sans-serif" font-size="423px" font-weight="700"><tspan class="TextPosition" x="7514" y="12426"><tspan fill="rgb(159,144,101)" stroke="none" style="white-space: pre">streamFoldStrings</tspan></tspan></tspan></text>
 <text class="SVGTextShape"><tspan class="TextParagraph" font-family="Liberation Sans, sans-serif" font-size="423px" font-weight="700"><tspan class="TextPosition" x="12070" y="12426"><tspan fill="rgb(159,144,101)" stroke="none" style="white-space: pre">fs2ReadAllBytes</tspan></tspan></tspan></text>
 <text class="SVGTextShape"><tspan class="TextParagraph" font-family="Liberation Sans, sans-serif" font-size="423px" font-weight="700"><tspan class="TextPosition" x="16425" y="12426"><tspan fill="rgb(159,144,101)" stroke="none" style="white-space: pre">nioReadAllBytes</tspan></tspan></tspan></text>
 <text class="SVGTextShape"><tspan class="TextParagraph" font-family="Liberation Sans, sans-serif" font-size="423px" font-weight="700"><tspan class="TextPosition" x="20941" y="12426"><tspan fill="rgb(159,144,101)" stroke="none" style="white-space: pre">nioInputStream</tspan></tspan></tspan></text>
 <text class="SVGTextShape"><tspan class="TextParagraph" font-family="Liberation Sans, sans-serif" font-size="353px" font-weight="700"><tspan class="TextPosition" x="2206" y="11927"><tspan fill="rgb(159,144,101)" stroke="none" style="white-space: pre">15</tspan></tspan></tspan></text>
 <text class="SVGTextShape"><tspan class="TextParagraph" font-family="Liberation Sans, sans-serif" font-size="353px" font-weight="700"><tspan class="TextPosition" x="2206" y="10790"><tspan fill="rgb(159,144,101)" stroke="none" style="white-space: pre">16</tspan></tspan></tspan></text>
 <text class="SVGTextShape"><tspan class="TextParagraph" font-family="Liberation Sans, sans-serif" font-size="353px" font-weight="700"><tspan class="TextPosition" x="2206" y="9653"><tspan fill="rgb(159,144,101)" stroke="none" style="white-space: pre">17</tspan></tspan></tspan></text>
 <text class="SVGTextShape"><tspan class="TextParagraph" font-family="Liberation Sans, sans-serif" font-size="353px" font-weight="700"><tspan class="TextPosition" x="2206" y="8516"><tspan fill="rgb(159,144,101)" stroke="none" style="white-space: pre">18</tspan></tspan></tspan></text>
 <text class="SVGTextShape"><tspan class="TextParagraph" font-family="Liberation Sans, sans-serif" font-size="353px" font-weight="700"><tspan class="TextPosition" x="2206" y="7380"><tspan fill="rgb(159,144,101)" stroke="none" style="white-space: pre">19</tspan></tspan></tspan></text>
 <text class="SVGTextShape"><tspan class="TextParagraph" font-family="Liberation Sans, sans-serif" font-size="353px" font-weight="700"><tspan class="TextPosition" x="2206" y="6243"><tspan fill="rgb(159,144,101)" stroke="none" style="white-space: pre">20</tspan></tspan></tspan></text>
 <text class="SVGTextShape"><tspan class="TextParagraph" font-family="Liberation Sans, sans-serif" font-size="353px" font-weight="700"><tspan class="TextPosition" x="2206" y="5106"><tspan fill="rgb(159,144,101)" stroke="none" style="white-space: pre">21</tspan></tspan></tspan></text>
 <text class="SVGTextShape"><tspan class="TextParagraph" font-family="Liberation Sans, sans-serif" font-size="353px" font-weight="700"><tspan class="TextPosition" x="2206" y="3970"><tspan fill="rgb(159,144,101)" stroke="none" style="white-space: pre">22</tspan></tspan></tspan></text>
 <text class="SVGTextShape"><tspan class="TextParagraph" font-family="Liberation Sans, sans-serif" font-size="353px" font-weight="700"><tspan class="TextPosition" x="2206" y="2833"><tspan fill="rgb(159,144,101)" stroke="none" style="white-space: pre">23</tspan></tspan></tspan></text>
 <text class="SVGTextShape"><tspan class="TextParagraph" font-family="Liberation Sans, sans-serif" font-size="353px" font-weight="700"><tspan class="TextPosition" x="2206" y="1696"><tspan fill="rgb(159,144,101)" stroke="none" style="white-space: pre">24</tspan></tspan></tspan></text>
 <text class="SVGTextShape"><tspan class="TextParagraph" font-family="Liberation Sans, sans-serif" font-size="353px" font-weight="700"><tspan class="TextPosition" x="2206" y="560"><tspan fill="rgb(159,144,101)" stroke="none" style="white-space: pre">25</tspan></tspan></tspan></text>
 <text class="SVGTextShape"><tspan class="TextParagraph" font-family="Liberation Sans, sans-serif" font-size="423px" font-weight="700"><tspan class="TextPosition" x="4362" y="7758"><tspan fill="rgb(159,144,101)" stroke="none" style="white-space: pre">22,379</tspan></tspan></tspan></text>
 <text class="SVGTextShape"><tspan class="TextParagraph" font-family="Liberation Sans, sans-serif" font-size="423px" font-weight="700"><tspan class="TextPosition" x="8732" y="10223"><tspan fill="rgb(159,144,101)" stroke="none" style="white-space: pre">18,041</tspan></tspan></tspan></text>
 <text class="SVGTextShape"><tspan class="TextParagraph" font-family="Liberation Sans, sans-serif" font-size="423px" font-weight="700"><tspan class="TextPosition" x="13102" y="8487"><tspan fill="rgb(159,144,101)" stroke="none" style="white-space: pre">21,096</tspan></tspan></tspan></text>
 <text class="SVGTextShape"><tspan class="TextParagraph" font-family="Liberation Sans, sans-serif" font-size="423px" font-weight="700"><tspan class="TextPosition" x="17471" y="7277"><tspan fill="rgb(159,144,101)" stroke="none" style="white-space: pre">23,225</tspan></tspan></tspan></text>
 <text class="SVGTextShape"><tspan class="TextParagraph" font-family="Liberation Sans, sans-serif" font-size="423px" font-weight="700"><tspan class="TextPosition" x="21841" y="6816"><tspan fill="rgb(159,144,101)" stroke="none" style="white-space: pre">24,035</tspan></tspan></tspan></text>
 <text class="SVGTextShape"><tspan class="TextParagraph" font-family="Liberation Sans, sans-serif" font-size="423px" font-weight="700"><tspan class="TextPosition" x="514" y="6520"><tspan fill="rgb(159,144,101)" stroke="none" style="white-space: pre">ops/s</tspan></tspan></tspan></text>
</svg>