<?xml version="1.0" encoding="UTF-8"?>
<!DOCTYPE svg PUBLIC "-//W3C//DTD SVG 1.1//EN" "http://www.w3.org/Graphics/SVG/1.1/DTD/svg11.dtd">
<svg width="252mm" height="128mm" viewBox="0 0 25200 12800" version="1.1" xmlns="http://www.w3.org/2000/svg" xmlns:xlink="http://www.w3.org/1999/xlink" stroke-width="28.222" stroke-linejoin="round" xml:space="preserve">
 <path fill="none" stroke="none" d="M 12582,12762 L -13,12762 -13,-13 25176,-13 25176,12762 12582,12762 Z"/>
 <path fill="none" stroke="rgb(253,215,0)" stroke-linejoin="round" d="M 14027,11807 L 3382,11807 3382,242 24673,242 24673,11807 14027,11807 Z"/>
 <path fill="none" stroke="rgb(253,215,0)" stroke-linejoin="round" d="M 24673,11806 L 3382,11806"/>
 <path fill="none" stroke="rgb(253,215,0)" stroke-linejoin="round" d="M 24673,10471 L 3382,10471"/>
 <path fill="none" stroke="rgb(253,215,0)" stroke-linejoin="round" d="M 24673,9136 L 3382,9136"/>
 <path fill="none" stroke="rgb(253,215,0)" stroke-linejoin="round" d="M 24673,7802 L 3382,7802"/>
 <path fill="none" stroke="rgb(253,215,0)" stroke-linejoin="round" d="M 24673,6467 L 3382,6467"/>
 <path fill="none" stroke="rgb(253,215,0)" stroke-linejoin="round" d="M 24673,5134 L 3382,5134"/>
 <path fill="none" stroke="rgb(253,215,0)" stroke-linejoin="round" d="M 24673,3799 L 3382,3799"/>
 <path fill="none" stroke="rgb(253,215,0)" stroke-linejoin="round" d="M 24673,2465 L 3382,2465"/>
 <path fill="none" stroke="rgb(253,215,0)" stroke-linejoin="round" d="M 24673,1130 L 3382,1130"/>
 <path fill="none" stroke="rgb(253,215,0)" stroke-linejoin="round" d="M 3382,11956 L 3382,11806"/>
 <path fill="none" stroke="rgb(253,215,0)" stroke-linejoin="round" d="M 3382,11956 L 3382,11806"/>
 <path fill="none" stroke="rgb(253,215,0)" stroke-linejoin="round" d="M 7640,11956 L 7640,11806"/>
 <path fill="none" stroke="rgb(253,215,0)" stroke-linejoin="round" d="M 7640,11956 L 7640,11806"/>
 <path fill="none" stroke="rgb(253,215,0)" stroke-linejoin="round" d="M 11898,11956 L 11898,11806"/>
 <path fill="none" stroke="rgb(253,215,0)" stroke-linejoin="round" d="M 11898,11956 L 11898,11806"/>
 <path fill="none" stroke="rgb(253,215,0)" stroke-linejoin="round" d="M 16156,11956 L 16156,11806"/>
 <path fill="none" stroke="rgb(253,215,0)" stroke-linejoin="round" d="M 16156,11956 L 16156,11806"/>
 <path fill="none" stroke="rgb(253,215,0)" stroke-linejoin="round" d="M 20414,11956 L 20414,11806"/>
 <path fill="none" stroke="rgb(253,215,0)" stroke-linejoin="round" d="M 20414,11956 L 20414,11806"/>
 <path fill="none" stroke="rgb(253,215,0)" stroke-linejoin="round" d="M 24673,11956 L 24673,11806"/>
 <path fill="none" stroke="rgb(253,215,0)" stroke-linejoin="round" d="M 24673,11956 L 24673,11806"/>
 <path fill="none" stroke="rgb(253,215,0)" stroke-linejoin="round" d="M 3382,11806 L 24673,11806"/>
 <path fill="none" stroke="rgb(253,215,0)" stroke-linejoin="round" d="M 3232,11806 L 3382,11806"/>
 <path fill="none" stroke="rgb(253,215,0)" stroke-linejoin="round" d="M 3232,11806 L 3382,11806"/>
 <path fill="none" stroke="rgb(253,215,0)" stroke-linejoin="round" d="M 3232,10471 L 3382,10471"/>
 <path fill="none" stroke="rgb(253,215,0)" stroke-linejoin="round" d="M 3232,10471 L 3382,10471"/>
 <path fill="none" stroke="rgb(253,215,0)" stroke-linejoin="round" d="M 3232,9136 L 3382,9136"/>
 <path fill="none" stroke="rgb(253,215,0)" stroke-linejoin="round" d="M 3232,9136 L 3382,9136"/>
 <path fill="none" stroke="rgb(253,215,0)" stroke-linejoin="round" d="M 3232,7802 L 3382,7802"/>
 <path fill="none" stroke="rgb(253,215,0)" stroke-linejoin="round" d="M 3232,7802 L 3382,7802"/>
 <path fill="none" stroke="rgb(253,215,0)" stroke-linejoin="round" d="M 3232,6467 L 3382,6467"/>
 <path fill="none" stroke="rgb(253,215,0)" stroke-linejoin="round" d="M 3232,6467 L 3382,6467"/>
 <path fill="none" stroke="rgb(253,215,0)" stroke-linejoin="round" d="M 3232,5134 L 3382,5134"/>
 <path fill="none" stroke="rgb(253,215,0)" stroke-linejoin="round" d="M 3232,5134 L 3382,5134"/>
 <path fill="none" stroke="rgb(253,215,0)" stroke-linejoin="round" d="M 3232,3799 L 3382,3799"/>
 <path fill="none" stroke="rgb(253,215,0)" stroke-linejoin="round" d="M 3232,3799 L 3382,3799"/>
 <path fill="none" stroke="rgb(253,215,0)" stroke-linejoin="round" d="M 3232,2465 L 3382,2465"/>
 <path fill="none" stroke="rgb(253,215,0)" stroke-linejoin="round" d="M 3232,2465 L 3382,2465"/>
 <path fill="none" stroke="rgb(253,215,0)" stroke-linejoin="round" d="M 3232,1130 L 3382,1130"/>
 <path fill="none" stroke="rgb(253,215,0)" stroke-linejoin="round" d="M 3232,1130 L 3382,1130"/>
 <path fill="none" stroke="rgb(253,215,0)" stroke-linejoin="round" d="M 3382,11806 L 3382,240"/>
 <path fill="rgb(27,61,47)" stroke="none" d="M 21479,11806 L 23608,11806 23608,2070 21479,2070 21479,11806 Z"/>
 <path fill="rgb(27,61,47)" stroke="none" d="M 17220,11806 L 19350,11806 19350,2487 17220,2487 17220,11806 Z"/>
 <path fill="rgb(27,61,47)" stroke="none" d="M 12962,11806 L 15091,11806 15091,11397 12962,11397 12962,11806 Z"/>
 <path fill="rgb(27,61,47)" stroke="none" d="M 8705,11806 L 10834,11806 10834,11219 8705,11219 8705,11806 Z"/>
 <path fill="rgb(27,61,47)" stroke="none" d="M 4446,11806 L 6575,11806 6575,11151 4446,11151 4446,11806 Z"/>
 <path fill="none" stroke="rgb(159,144,101)" stroke-width="100" stroke-linejoin="round" d="M 5511,11184 L 5511,11151 5511,11119"/>
 <path fill="none" stroke="rgb(159,144,101)" stroke-width="100" stroke-linejoin="round" d="M 5611,11184 L 5411,11184"/>
 <path fill="none" stroke="rgb(159,144,101)" stroke-width="100" stroke-linejoin="round" d="M 5411,11119 L 5611,11119"/>
 <path fill="none" stroke="rgb(159,144,101)" stroke-width="100" stroke-linejoin="round" d="M 9769,11264 L 9769,11219 9769,11175"/>
 <path fill="none" stroke="rgb(159,144,101)" stroke-width="100" stroke-linejoin="round" d="M 9869,11264 L 9669,11264"/>
 <path fill="none" stroke="rgb(159,144,101)" stroke-width="100" stroke-linejoin="round" d="M 9669,11175 L 9869,11175"/>
 <path fill="none" stroke="rgb(159,144,101)" stroke-width="100" stroke-linejoin="round" d="M 14026,11428 L 14026,11397 14026,11367"/>
 <path fill="none" stroke="rgb(159,144,101)" stroke-width="100" stroke-linejoin="round" d="M 14126,11428 L 13926,11428"/>
 <path fill="none" stroke="rgb(159,144,101)" stroke-width="100" stroke-linejoin="round" d="M 13926,11367 L 14126,11367"/>
 <path fill="none" stroke="rgb(159,144,101)" stroke-width="100" stroke-linejoin="round" d="M 18285,3739 L 18285,2487 18285,1236"/>
 <path fill="none" stroke="rgb(159,144,101)" stroke-width="100" stroke-linejoin="round" d="M 18385,3739 L 18185,3739"/>
 <path fill="none" stroke="rgb(159,144,101)" stroke-width="100" stroke-linejoin="round" d="M 18185,1236 L 18385,1236"/>
 <path fill="none" stroke="rgb(159,144,101)" stroke-width="100" stroke-linejoin="round" d="M 22543,3481 L 22543,2070 22543,660"/>
 <path fill="none" stroke="rgb(159,144,101)" stroke-width="100" stroke-linejoin="round" d="M 22643,3481 L 22443,3481"/>
 <path fill="none" stroke="rgb(159,144,101)" stroke-width="100" stroke-linejoin="round" d="M 22443,660 L 22643,660"/>
 <text class="SVGTextShape"><tspan class="TextParagraph" font-family="Liberation Sans, sans-serif" font-size="423px" font-weight="700"><tspan class="TextPosition" x="3579" y="12426"><tspan fill="rgb(159,144,101)" stroke="none" style="white-space: pre">streamFoldChunks</tspan></tspan></tspan></text>
 <text class="SVGTextShape"><tspan class="TextParagraph" font-family="Liberation Sans, sans-serif" font-size="423px" font-weight="700"><tspan class="TextPosition" x="7903" y="12426"><tspan fill="rgb(159,144,101)" stroke="none" style="white-space: pre">streamFoldStrings</tspan></tspan></tspan></text>
 <text class="SVGTextShape"><tspan class="TextParagraph" font-family="Liberation Sans, sans-serif" font-size="423px" font-weight="700"><tspan class="TextPosition" x="12348" y="12426"><tspan fill="rgb(159,144,101)" stroke="none" style="white-space: pre">fs2ReadAllBytes</tspan></tspan></tspan></text>
 <text class="SVGTextShape"><tspan class="TextParagraph" font-family="Liberation Sans, sans-serif" font-size="423px" font-weight="700"><tspan class="TextPosition" x="16592" y="12426"><tspan fill="rgb(159,144,101)" stroke="none" style="white-space: pre">nioReadAllBytes</tspan></tspan></tspan></text>
 <text class="SVGTextShape"><tspan class="TextParagraph" font-family="Liberation Sans, sans-serif" font-size="423px" font-weight="700"><tspan class="TextPosition" x="20996" y="12426"><tspan fill="rgb(159,144,101)" stroke="none" style="white-space: pre">nioInputStream</tspan></tspan></tspan></text>
 <text class="SVGTextShape"><tspan class="TextParagraph" font-family="Liberation Sans, sans-serif" font-size="353px" font-weight="700"><tspan class="TextPosition" x="2391" y="11927"><tspan fill="rgb(159,144,101)" stroke="none" style="white-space: pre">2000</tspan></tspan></tspan></text>
 <text class="SVGTextShape"><tspan class="TextParagraph" font-family="Liberation Sans, sans-serif" font-size="353px" font-weight="700"><tspan class="TextPosition" x="2391" y="10592"><tspan fill="rgb(159,144,101)" stroke="none" style="white-space: pre">3500</tspan></tspan></tspan></text>
 <text class="SVGTextShape"><tspan class="TextParagraph" font-family="Liberation Sans, sans-serif" font-size="353px" font-weight="700"><tspan class="TextPosition" x="2391" y="9257"><tspan fill="rgb(159,144,101)" stroke="none" style="white-space: pre">5000</tspan></tspan></tspan></text>
 <text class="SVGTextShape"><tspan class="TextParagraph" font-family="Liberation Sans, sans-serif" font-size="353px" font-weight="700"><tspan class="TextPosition" x="2391" y="7923"><tspan fill="rgb(159,144,101)" stroke="none" style="white-space: pre">6500</tspan></tspan></tspan></text>
 <text class="SVGTextShape"><tspan class="TextParagraph" font-family="Liberation Sans, sans-serif" font-size="353px" font-weight="700"><tspan class="TextPosition" x="2391" y="6588"><tspan fill="rgb(159,144,101)" stroke="none" style="white-space: pre">8000</tspan></tspan></tspan></text>
 <text class="SVGTextShape"><tspan class="TextParagraph" font-family="Liberation Sans, sans-serif" font-size="353px" font-weight="700"><tspan class="TextPosition" x="2391" y="5254"><tspan fill="rgb(159,144,101)" stroke="none" style="white-space: pre">9500</tspan></tspan></tspan></text>
 <text class="SVGTextShape"><tspan class="TextParagraph" font-family="Liberation Sans, sans-serif" font-size="353px" font-weight="700"><tspan class="TextPosition" x="2206" y="3919"><tspan fill="rgb(159,144,101)" stroke="none" style="white-space: pre">11000</tspan></tspan></tspan></text>
 <text class="SVGTextShape"><tspan class="TextParagraph" font-family="Liberation Sans, sans-serif" font-size="353px" font-weight="700"><tspan class="TextPosition" x="2206" y="2585"><tspan fill="rgb(159,144,101)" stroke="none" style="white-space: pre">12500</tspan></tspan></tspan></text>
 <text class="SVGTextShape"><tspan class="TextParagraph" font-family="Liberation Sans, sans-serif" font-size="353px" font-weight="700"><tspan class="TextPosition" x="2206" y="1250"><tspan fill="rgb(159,144,101)" stroke="none" style="white-space: pre">14000</tspan></tspan></tspan></text>
 <text class="SVGTextShape"><tspan class="TextParagraph" font-family="Liberation Sans, sans-serif" font-size="423px" font-weight="700"><tspan class="TextPosition" x="4624" y="11624"><tspan fill="rgb(159,144,101)" stroke="none" style="white-space: pre">2735,418</tspan></tspan></tspan></text>
 <text class="SVGTextShape"><tspan class="TextParagraph" font-family="Liberation Sans, sans-serif" font-size="423px" font-weight="700"><tspan class="TextPosition" x="8882" y="11658"><tspan fill="rgb(159,144,101)" stroke="none" style="white-space: pre">2658,982</tspan></tspan></tspan></text>
 <text class="SVGTextShape"><tspan class="TextParagraph" font-family="Liberation Sans, sans-serif" font-size="423px" font-weight="700"><tspan class="TextPosition" x="13140" y="11747"><tspan fill="rgb(159,144,101)" stroke="none" style="white-space: pre">2458,952</tspan></tspan></tspan></text>
 <text class="SVGTextShape"><tspan class="TextParagraph" font-family="Liberation Sans, sans-serif" font-size="423px" font-weight="700"><tspan class="TextPosition" x="17280" y="7292"><tspan fill="rgb(159,144,101)" stroke="none" style="white-space: pre">12474,432</tspan></tspan></tspan></text>
 <text class="SVGTextShape"><tspan class="TextParagraph" font-family="Liberation Sans, sans-serif" font-size="423px" font-weight="700"><tspan class="TextPosition" x="21538" y="7083"><tspan fill="rgb(159,144,101)" stroke="none" style="white-space: pre">12943,334</tspan></tspan></tspan></text>
 <text class="SVGTextShape"><tspan class="TextParagraph" font-family="Liberation Sans, sans-serif" font-size="423px" font-weight="700"><tspan class="TextPosition" x="514" y="6520"><tspan fill="rgb(159,144,101)" stroke="none" style="white-space: pre">ops/s</tspan></tspan></tspan></text>
</svg>