<?xml version="1.0" encoding="UTF-8"?>
<!DOCTYPE svg PUBLIC "-//W3C//DTD SVG 1.1//EN" "http://www.w3.org/Graphics/SVG/1.1/DTD/svg11.dtd">
<svg width="219mm" height="128mm" viewBox="0 0 21900 12800" version="1.1" xmlns="http://www.w3.org/2000/svg" xmlns:xlink="http://www.w3.org/1999/xlink" stroke-width="28.222" stroke-linejoin="round" xml:space="preserve">
 <path fill="none" stroke="none" d="M 10931,12762 L -13,12762 -13,-13 21875,-13 21875,12762 10931,12762 Z"/>
 <path fill="none" stroke="rgb(253,215,0)" stroke-linejoin="round" d="M 12377,11807 L 3316,11807 3316,242 21438,242 21438,11807 12377,11807 Z"/>
 <path fill="none" stroke="rgb(253,215,0)" stroke-linejoin="round" d="M 21438,11806 L 3316,11806"/>
 <path fill="none" stroke="rgb(253,215,0)" stroke-linejoin="round" d="M 21438,10471 L 3316,10471"/>
 <path fill="none" stroke="rgb(253,215,0)" stroke-linejoin="round" d="M 21438,9136 L 3316,9136"/>
 <path fill="none" stroke="rgb(253,215,0)" stroke-linejoin="round" d="M 21438,7802 L 3316,7802"/>
 <path fill="none" stroke="rgb(253,215,0)" stroke-linejoin="round" d="M 21438,6467 L 3316,6467"/>
 <path fill="none" stroke="rgb(253,215,0)" stroke-linejoin="round" d="M 21438,5134 L 3316,5134"/>
 <path fill="none" stroke="rgb(253,215,0)" stroke-linejoin="round" d="M 21438,3799 L 3316,3799"/>
 <path fill="none" stroke="rgb(253,215,0)" stroke-linejoin="round" d="M 21438,2465 L 3316,2465"/>
 <path fill="none" stroke="rgb(253,215,0)" stroke-linejoin="round" d="M 21438,1130 L 3316,1130"/>
 <path fill="none" stroke="rgb(253,215,0)" stroke-linejoin="round" d="M 3316,11956 L 3316,11806"/>
 <path fill="none" stroke="rgb(253,215,0)" stroke-linejoin="round" d="M 3316,11956 L 3316,11806"/>
 <path fill="none" stroke="rgb(253,215,0)" stroke-linejoin="round" d="M 12376,11956 L 12376,11806"/>
 <path fill="none" stroke="rgb(253,215,0)" stroke-linejoin="round" d="M 12376,11956 L 12376,11806"/>
 <path fill="none" stroke="rgb(253,215,0)" stroke-linejoin="round" d="M 21438,11956 L 21438,11806"/>
 <path fill="none" stroke="rgb(253,215,0)" stroke-linejoin="round" d="M 21438,11956 L 21438,11806"/>
 <path fill="none" stroke="rgb(253,215,0)" stroke-linejoin="round" d="M 3316,11806 L 21438,11806"/>
 <path fill="none" stroke="rgb(253,215,0)" stroke-linejoin="round" d="M 3166,11806 L 3316,11806"/>
 <path fill="none" stroke="rgb(253,215,0)" stroke-linejoin="round" d="M 3166,11806 L 3316,11806"/>
 <path fill="none" stroke="rgb(253,215,0)" stroke-linejoin="round" d="M 3166,10471 L 3316,10471"/>
 <path fill="none" stroke="rgb(253,215,0)" stroke-linejoin="round" d="M 3166,10471 L 3316,10471"/>
 <path fill="none" stroke="rgb(253,215,0)" stroke-linejoin="round" d="M 3166,9136 L 3316,9136"/>
 <path fill="none" stroke="rgb(253,215,0)" stroke-linejoin="round" d="M 3166,9136 L 3316,9136"/>
 <path fill="none" stroke="rgb(253,215,0)" stroke-linejoin="round" d="M 3166,7802 L 3316,7802"/>
 <path fill="none" stroke="rgb(253,215,0)" stroke-linejoin="round" d="M 3166,7802 L 3316,7802"/>
 <path fill="none" stroke="rgb(253,215,0)" stroke-linejoin="round" d="M 3166,6467 L 3316,6467"/>
 <path fill="none" stroke="rgb(253,215,0)" stroke-linejoin="round" d="M 3166,6467 L 3316,6467"/>
 <path fill="none" stroke="rgb(253,215,0)" stroke-linejoin="round" d="M 3166,5134 L 3316,5134"/>
 <path fill="none" stroke="rgb(253,215,0)" stroke-linejoin="round" d="M 3166,5134 L 3316,5134"/>
 <path fill="none" stroke="rgb(253,215,0)" stroke-linejoin="round" d="M 3166,3799 L 3316,3799"/>
 <path fill="none" stroke="rgb(253,215,0)" stroke-linejoin="round" d="M 3166,3799 L 3316,3799"/>
 <path fill="none" stroke="rgb(253,215,0)" stroke-linejoin="round" d="M 3166,2465 L 3316,2465"/>
 <path fill="none" stroke="rgb(253,215,0)" stroke-linejoin="round" d="M 3166,2465 L 3316,2465"/>
 <path fill="none" stroke="rgb(253,215,0)" stroke-linejoin="round" d="M 3166,1130 L 3316,1130"/>
 <path fill="none" stroke="rgb(253,215,0)" stroke-linejoin="round" d="M 3166,1130 L 3316,1130"/>
 <path fill="none" stroke="rgb(253,215,0)" stroke-linejoin="round" d="M 3316,11806 L 3316,240"/>
 <path fill="rgb(27,61,47)" stroke="none" d="M 14641,11806 L 19172,11806 19172,2070 14641,2070 14641,11806 Z"/>
 <path fill="rgb(27,61,47)" stroke="none" d="M 5581,11806 L 10112,11806 10112,2487 5581,2487 5581,11806 Z"/>
 <path fill="none" stroke="rgb(159,144,101)" stroke-width="100" stroke-linejoin="round" d="M 7846,3739 L 7846,2487 7846,1236"/>
 <path fill="none" stroke="rgb(159,144,101)" stroke-width="100" stroke-linejoin="round" d="M 7946,3739 L 7746,3739"/>
 <path fill="none" stroke="rgb(159,144,101)" stroke-width="100" stroke-linejoin="round" d="M 7746,1236 L 7946,1236"/>
 <path fill="none" stroke="rgb(159,144,101)" stroke-width="100" stroke-linejoin="round" d="M 16907,3481 L 16907,2070 16907,660"/>
 <path fill="none" stroke="rgb(159,144,101)" stroke-width="100" stroke-linejoin="round" d="M 17007,3481 L 16807,3481"/>
 <path fill="none" stroke="rgb(159,144,101)" stroke-width="100" stroke-linejoin="round" d="M 16807,660 L 17007,660"/>
 <text class="SVGTextShape"><tspan class="TextParagraph" font-family="Liberation Sans, sans-serif" font-size="423px" font-weight="700"><tspan class="TextPosition" x="6152" y="12426"><tspan fill="rgb(159,144,101)" stroke="none" style="white-space: pre">nioReadAllBytes</tspan></tspan></tspan></text>
 <text class="SVGTextShape"><tspan class="TextParagraph" font-family="Liberation Sans, sans-serif" font-size="423px" font-weight="700"><tspan class="TextPosition" x="15360" y="12426"><tspan fill="rgb(159,144,101)" stroke="none" style="white-space: pre">nioInputStream</tspan></tspan></tspan></text>
 <text class="SVGTextShape"><tspan class="TextParagraph" font-family="Liberation Sans, sans-serif" font-size="353px" font-weight="700"><tspan class="TextPosition" x="2325" y="11927"><tspan fill="rgb(159,144,101)" stroke="none" style="white-space: pre">2000</tspan></tspan></tspan></text>
 <text class="SVGTextShape"><tspan class="TextParagraph" font-family="Liberation Sans, sans-serif" font-size="353px" font-weight="700"><tspan class="TextPosition" x="2325" y="10592"><tspan fill="rgb(159,144,101)" stroke="none" style="white-space: pre">3500</tspan></tspan></tspan></text>
 <text class="SVGTextShape"><tspan class="TextParagraph" font-family="Liberation Sans, sans-serif" font-size="353px" font-weight="700"><tspan class="TextPosition" x="2325" y="9257"><tspan fill="rgb(159,144,101)" stroke="none" style="white-space: pre">5000</tspan></tspan></tspan></text>
 <text class="SVGTextShape"><tspan class="TextParagraph" font-family="Liberation Sans, sans-serif" font-size="353px" font-weight="700"><tspan class="TextPosition" x="2325" y="7923"><tspan fill="rgb(159,144,101)" stroke="none" style="white-space: pre">6500</tspan></tspan></tspan></text>
 <text class="SVGTextShape"><tspan class="TextParagraph" font-family="Liberation Sans, sans-serif" font-size="353px" font-weight="700"><tspan class="TextPosition" x="2325" y="6588"><tspan fill="rgb(159,144,101)" stroke="none" style="white-space: pre">8000</tspan></tspan></tspan></text>
 <text class="SVGTextShape"><tspan class="TextParagraph" font-family="Liberation Sans, sans-serif" font-size="353px" font-weight="700"><tspan class="TextPosition" x="2325" y="5254"><tspan fill="rgb(159,144,101)" stroke="none" style="white-space: pre">9500</tspan></tspan></tspan></text>
 <text class="SVGTextShape"><tspan class="TextParagraph" font-family="Liberation Sans, sans-serif" font-size="353px" font-weight="700"><tspan class="TextPosition" x="2140" y="3919"><tspan fill="rgb(159,144,101)" stroke="none" style="white-space: pre">11000</tspan></tspan></tspan></text>
 <text class="SVGTextShape"><tspan class="TextParagraph" font-family="Liberation Sans, sans-serif" font-size="353px" font-weight="700"><tspan class="TextPosition" x="2140" y="2585"><tspan fill="rgb(159,144,101)" stroke="none" style="white-space: pre">12500</tspan></tspan></tspan></text>
 <text class="SVGTextShape"><tspan class="TextParagraph" font-family="Liberation Sans, sans-serif" font-size="353px" font-weight="700"><tspan class="TextPosition" x="2140" y="1250"><tspan fill="rgb(159,144,101)" stroke="none" style="white-space: pre">14000</tspan></tspan></tspan></text>
 <text class="SVGTextShape"><tspan class="TextParagraph" font-family="Liberation Sans, sans-serif" font-size="423px" font-weight="700"><tspan class="TextPosition" x="6840" y="7292"><tspan fill="rgb(159,144,101)" stroke="none" style="white-space: pre">12474,432</tspan></tspan></tspan></text>
 <text class="SVGTextShape"><tspan class="TextParagraph" font-family="Liberation Sans, sans-serif" font-size="423px" font-weight="700"><tspan class="TextPosition" x="15902" y="7083"><tspan fill="rgb(159,144,101)" stroke="none" style="white-space: pre">12943,334</tspan></tspan></tspan></text>
 <text class="SVGTextShape"><tspan class="TextParagraph" font-family="Liberation Sans, sans-serif" font-size="423px" font-weight="700"><tspan class="TextPosition" x="514" y="6520"><tspan fill="rgb(159,144,101)" stroke="none" style="white-space: pre">ops/s</tspan></tspan></tspan></text>
</svg>