<?xml version="1.0" encoding="UTF-8"?>
<!DOCTYPE svg PUBLIC "-//W3C//DTD SVG 1.1//EN" "http://www.w3.org/Graphics/SVG/1.1/DTD/svg11.dtd">
<svg width="219mm" height="128mm" viewBox="0 0 21900 12800" version="1.1" xmlns="http://www.w3.org/2000/svg" xmlns:xlink="http://www.w3.org/1999/xlink" stroke-width="28.222" stroke-linejoin="round" xml:space="preserve">
 <path fill="none" stroke="none" d="M 10931,12762 L -13,12762 -13,-13 21875,-13 21875,12762 10931,12762 Z"/>
 <path fill="none" stroke="rgb(253,215,0)" stroke-linejoin="round" d="M 12284,11807 L 3131,11807 3131,441 21438,441 21438,11807 12284,11807 Z"/>
 <path fill="none" stroke="rgb(253,215,0)" stroke-linejoin="round" d="M 21438,11806 L 3131,11806"/>
 <path fill="none" stroke="rgb(253,215,0)" stroke-linejoin="round" d="M 21438,10543 L 3131,10543"/>
 <path fill="none" stroke="rgb(253,215,0)" stroke-linejoin="round" d="M 21438,9280 L 3131,9280"/>
 <path fill="none" stroke="rgb(253,215,0)" stroke-linejoin="round" d="M 21438,8017 L 3131,8017"/>
 <path fill="none" stroke="rgb(253,215,0)" stroke-linejoin="round" d="M 21438,6753 L 3131,6753"/>
 <path fill="none" stroke="rgb(253,215,0)" stroke-linejoin="round" d="M 21438,5491 L 3131,5491"/>
 <path fill="none" stroke="rgb(253,215,0)" stroke-linejoin="round" d="M 21438,4229 L 3131,4229"/>
 <path fill="none" stroke="rgb(253,215,0)" stroke-linejoin="round" d="M 21438,2966 L 3131,2966"/>
 <path fill="none" stroke="rgb(253,215,0)" stroke-linejoin="round" d="M 21438,1703 L 3131,1703"/>
 <path fill="none" stroke="rgb(253,215,0)" stroke-linejoin="round" d="M 21438,440 L 3131,440"/>
 <path fill="none" stroke="rgb(253,215,0)" stroke-linejoin="round" d="M 3131,11956 L 3131,11806"/>
 <path fill="none" stroke="rgb(253,215,0)" stroke-linejoin="round" d="M 3131,11956 L 3131,11806"/>
 <path fill="none" stroke="rgb(253,215,0)" stroke-linejoin="round" d="M 9233,11956 L 9233,11806"/>
 <path fill="none" stroke="rgb(253,215,0)" stroke-linejoin="round" d="M 9233,11956 L 9233,11806"/>
 <path fill="none" stroke="rgb(253,215,0)" stroke-linejoin="round" d="M 15335,11956 L 15335,11806"/>
 <path fill="none" stroke="rgb(253,215,0)" stroke-linejoin="round" d="M 15335,11956 L 15335,11806"/>
 <path fill="none" stroke="rgb(253,215,0)" stroke-linejoin="round" d="M 21438,11956 L 21438,11806"/>
 <path fill="none" stroke="rgb(253,215,0)" stroke-linejoin="round" d="M 21438,11956 L 21438,11806"/>
 <path fill="none" stroke="rgb(253,215,0)" stroke-linejoin="round" d="M 3131,11806 L 21438,11806"/>
 <path fill="none" stroke="rgb(253,215,0)" stroke-linejoin="round" d="M 2981,11806 L 3131,11806"/>
 <path fill="none" stroke="rgb(253,215,0)" stroke-linejoin="round" d="M 2981,11806 L 3131,11806"/>
 <path fill="none" stroke="rgb(253,215,0)" stroke-linejoin="round" d="M 2981,10543 L 3131,10543"/>
 <path fill="none" stroke="rgb(253,215,0)" stroke-linejoin="round" d="M 2981,10543 L 3131,10543"/>
 <path fill="none" stroke="rgb(253,215,0)" stroke-linejoin="round" d="M 2981,9280 L 3131,9280"/>
 <path fill="none" stroke="rgb(253,215,0)" stroke-linejoin="round" d="M 2981,9280 L 3131,9280"/>
 <path fill="none" stroke="rgb(253,215,0)" stroke-linejoin="round" d="M 2981,8017 L 3131,8017"/>
 <path fill="none" stroke="rgb(253,215,0)" stroke-linejoin="round" d="M 2981,8017 L 3131,8017"/>
 <path fill="none" stroke="rgb(253,215,0)" stroke-linejoin="round" d="M 2981,6754 L 3131,6754"/>
 <path fill="none" stroke="rgb(253,215,0)" stroke-linejoin="round" d="M 2981,6754 L 3131,6754"/>
 <path fill="none" stroke="rgb(253,215,0)" stroke-linejoin="round" d="M 2981,5492 L 3131,5492"/>
 <path fill="none" stroke="rgb(253,215,0)" stroke-linejoin="round" d="M 2981,5492 L 3131,5492"/>
 <path fill="none" stroke="rgb(253,215,0)" stroke-linejoin="round" d="M 2981,4229 L 3131,4229"/>
 <path fill="none" stroke="rgb(253,215,0)" stroke-linejoin="round" d="M 2981,4229 L 3131,4229"/>
 <path fill="none" stroke="rgb(253,215,0)" stroke-linejoin="round" d="M 2981,2966 L 3131,2966"/>
 <path fill="none" stroke="rgb(253,215,0)" stroke-linejoin="round" d="M 2981,2966 L 3131,2966"/>
 <path fill="none" stroke="rgb(253,215,0)" stroke-linejoin="round" d="M 2981,1703 L 3131,1703"/>
 <path fill="none" stroke="rgb(253,215,0)" stroke-linejoin="round" d="M 2981,1703 L 3131,1703"/>
 <path fill="none" stroke="rgb(253,215,0)" stroke-linejoin="round" d="M 2981,440 L 3131,440"/>
 <path fill="none" stroke="rgb(253,215,0)" stroke-linejoin="round" d="M 2981,440 L 3131,440"/>
 <path fill="none" stroke="rgb(253,215,0)" stroke-linejoin="round" d="M 3131,11806 L 3131,440"/>
 <path fill="rgb(27,61,47)" stroke="none" d="M 16861,11806 L 19912,11806 19912,6010 16861,6010 16861,11806 Z"/>
 <path fill="rgb(27,61,47)" stroke="none" d="M 10759,11806 L 13809,11806 13809,3484 10759,3484 10759,11806 Z"/>
 <path fill="rgb(27,61,47)" stroke="none" d="M 4656,11806 L 7708,11806 7708,2518 4656,2518 4656,11806 Z"/>
 <path fill="none" stroke="rgb(159,144,101)" stroke-width="100" stroke-linejoin="round" d="M 6182,2979 L 6182,2518 6182,2057"/>
 <path fill="none" stroke="rgb(159,144,101)" stroke-width="100" stroke-linejoin="round" d="M 6282,2979 L 6082,2979"/>
 <path fill="none" stroke="rgb(159,144,101)" stroke-width="100" stroke-linejoin="round" d="M 6082,2057 L 6282,2057"/>
 <path fill="none" stroke="rgb(159,144,101)" stroke-width="100" stroke-linejoin="round" d="M 12284,4115 L 12284,3484 12284,2852"/>
 <path fill="none" stroke="rgb(159,144,101)" stroke-width="100" stroke-linejoin="round" d="M 12384,4115 L 12184,4115"/>
 <path fill="none" stroke="rgb(159,144,101)" stroke-width="100" stroke-linejoin="round" d="M 12184,2852 L 12384,2852"/>
 <path fill="none" stroke="rgb(159,144,101)" stroke-width="100" stroke-linejoin="round" d="M 18386,6440 L 18386,6010 18386,5579"/>
 <path fill="none" stroke="rgb(159,144,101)" stroke-width="100" stroke-linejoin="round" d="M 18486,6440 L 18286,6440"/>
 <path fill="none" stroke="rgb(159,144,101)" stroke-width="100" stroke-linejoin="round" d="M 18286,5579 L 18486,5579"/>
 <text class="SVGTextShape"><tspan class="TextParagraph" font-family="Liberation Sans, sans-serif" font-size="423px" font-weight="700"><tspan class="TextPosition" x="4250" y="12426"><tspan fill="rgb(159,144,101)" stroke="none" style="white-space: pre">streamFoldChunks</tspan></tspan></tspan></text>
 <text class="SVGTextShape"><tspan class="TextParagraph" font-family="Liberation Sans, sans-serif" font-size="423px" font-weight="700"><tspan class="TextPosition" x="10419" y="12426"><tspan fill="rgb(159,144,101)" stroke="none" style="white-space: pre">streamFoldStrings</tspan></tspan></tspan></text>
 <text class="SVGTextShape"><tspan class="TextParagraph" font-family="Liberation Sans, sans-serif" font-size="423px" font-weight="700"><tspan class="TextPosition" x="16707" y="12426"><tspan fill="rgb(159,144,101)" stroke="none" style="white-space: pre">fs2ReadAllBytes</tspan></tspan></tspan></text>
 <text class="SVGTextShape"><tspan class="TextParagraph" font-family="Liberation Sans, sans-serif" font-size="353px" font-weight="700"><tspan class="TextPosition" x="2140" y="11927"><tspan fill="rgb(159,144,101)" stroke="none" style="white-space: pre">2000</tspan></tspan></tspan></text>
 <text class="SVGTextShape"><tspan class="TextParagraph" font-family="Liberation Sans, sans-serif" font-size="353px" font-weight="700"><tspan class="TextPosition" x="2140" y="10664"><tspan fill="rgb(159,144,101)" stroke="none" style="white-space: pre">2100</tspan></tspan></tspan></text>
 <text class="SVGTextShape"><tspan class="TextParagraph" font-family="Liberation Sans, sans-serif" font-size="353px" font-weight="700"><tspan class="TextPosition" x="2140" y="9401"><tspan fill="rgb(159,144,101)" stroke="none" style="white-space: pre">2200</tspan></tspan></tspan></text>
 <text class="SVGTextShape"><tspan class="TextParagraph" font-family="Liberation Sans, sans-serif" font-size="353px" font-weight="700"><tspan class="TextPosition" x="2140" y="8138"><tspan fill="rgb(159,144,101)" stroke="none" style="white-space: pre">2300</tspan></tspan></tspan></text>
 <text class="SVGTextShape"><tspan class="TextParagraph" font-family="Liberation Sans, sans-serif" font-size="353px" font-weight="700"><tspan class="TextPosition" x="2140" y="6875"><tspan fill="rgb(159,144,101)" stroke="none" style="white-space: pre">2400</tspan></tspan></tspan></text>
 <text class="SVGTextShape"><tspan class="TextParagraph" font-family="Liberation Sans, sans-serif" font-size="353px" font-weight="700"><tspan class="TextPosition" x="2140" y="5612"><tspan fill="rgb(159,144,101)" stroke="none" style="white-space: pre">2500</tspan></tspan></tspan></text>
 <text class="SVGTextShape"><tspan class="TextParagraph" font-family="Liberation Sans, sans-serif" font-size="353px" font-weight="700"><tspan class="TextPosition" x="2140" y="4349"><tspan fill="rgb(159,144,101)" stroke="none" style="white-space: pre">2600</tspan></tspan></tspan></text>
 <text class="SVGTextShape"><tspan class="TextParagraph" font-family="Liberation Sans, sans-serif" font-size="353px" font-weight="700"><tspan class="TextPosition" x="2140" y="3086"><tspan fill="rgb(159,144,101)" stroke="none" style="white-space: pre">2700</tspan></tspan></tspan></text>
 <text class="SVGTextShape"><tspan class="TextParagraph" font-family="Liberation Sans, sans-serif" font-size="353px" font-weight="700"><tspan class="TextPosition" x="2140" y="1823"><tspan fill="rgb(159,144,101)" stroke="none" style="white-space: pre">2800</tspan></tspan></tspan></text>
 <text class="SVGTextShape"><tspan class="TextParagraph" font-family="Liberation Sans, sans-serif" font-size="353px" font-weight="700"><tspan class="TextPosition" x="2140" y="560"><tspan fill="rgb(159,144,101)" stroke="none" style="white-space: pre">2900</tspan></tspan></tspan></text>
 <text class="SVGTextShape"><tspan class="TextParagraph" font-family="Liberation Sans, sans-serif" font-size="423px" font-weight="700"><tspan class="TextPosition" x="5295" y="7307"><tspan fill="rgb(159,144,101)" stroke="none" style="white-space: pre">2735,418</tspan></tspan></tspan></text>
 <text class="SVGTextShape"><tspan class="TextParagraph" font-family="Liberation Sans, sans-serif" font-size="423px" font-weight="700"><tspan class="TextPosition" x="11398" y="7790"><tspan fill="rgb(159,144,101)" stroke="none" style="white-space: pre">2658,982</tspan></tspan></tspan></text>
 <text class="SVGTextShape"><tspan class="TextParagraph" font-family="Liberation Sans, sans-serif" font-size="423px" font-weight="700"><tspan class="TextPosition" x="17500" y="9053"><tspan fill="rgb(159,144,101)" stroke="none" style="white-space: pre">2458,952</tspan></tspan></tspan></text>
 <text class="SVGTextShape"><tspan class="TextParagraph" font-family="Liberation Sans, sans-serif" font-size="423px" font-weight="700"><tspan class="TextPosition" x="514" y="6520"><tspan fill="rgb(159,144,101)" stroke="none" style="white-space: pre">ops/s</tspan></tspan></tspan></text>
</svg>