<?xml version="1.0" encoding="UTF-8"?>
<!DOCTYPE svg PUBLIC "-//W3C//DTD SVG 1.1//EN" "http://www.w3.org/Graphics/SVG/1.1/DTD/svg11.dtd">
<svg width="252mm" height="128mm" viewBox="0 0 25200 12800" version="1.1" xmlns="http://www.w3.org/2000/svg" xmlns:xlink="http://www.w3.org/1999/xlink" stroke-width="28.222" stroke-linejoin="round" xml:space="preserve">
 <path fill="none" stroke="none" d="M 12582,12762 L -13,12762 -13,-13 25176,-13 25176,12762 12582,12762 Z"/>
 <path fill="none" stroke="rgb(253,215,0)" stroke-linejoin="round" d="M 13842,11807 L 3012,11807 3012,441 24673,441 24673,11807 13842,11807 Z"/>
 <path fill="none" stroke="rgb(253,215,0)" stroke-linejoin="round" d="M 24673,11806 L 3012,11806"/>
 <path fill="none" stroke="rgb(253,215,0)" stroke-linejoin="round" d="M 24673,10543 L 3012,10543"/>
 <path fill="none" stroke="rgb(253,215,0)" stroke-linejoin="round" d="M 24673,9280 L 3012,9280"/>
 <path fill="none" stroke="rgb(253,215,0)" stroke-linejoin="round" d="M 24673,8017 L 3012,8017"/>
 <path fill="none" stroke="rgb(253,215,0)" stroke-linejoin="round" d="M 24673,6754 L 3012,6754"/>
 <path fill="none" stroke="rgb(253,215,0)" stroke-linejoin="round" d="M 24673,5492 L 3012,5492"/>
 <path fill="none" stroke="rgb(253,215,0)" stroke-linejoin="round" d="M 24673,4229 L 3012,4229"/>
 <path fill="none" stroke="rgb(253,215,0)" stroke-linejoin="round" d="M 24673,2966 L 3012,2966"/>
 <path fill="none" stroke="rgb(253,215,0)" stroke-linejoin="round" d="M 24673,1703 L 3012,1703"/>
 <path fill="none" stroke="rgb(253,215,0)" stroke-linejoin="round" d="M 24673,440 L 3012,440"/>
 <path fill="none" stroke="rgb(253,215,0)" stroke-linejoin="round" d="M 3012,11956 L 3012,11806"/>
 <path fill="none" stroke="rgb(253,215,0)" stroke-linejoin="round" d="M 3012,11956 L 3012,11806"/>
 <path fill="none" stroke="rgb(253,215,0)" stroke-linejoin="round" d="M 7344,11956 L 7344,11806"/>
 <path fill="none" stroke="rgb(253,215,0)" stroke-linejoin="round" d="M 7344,11956 L 7344,11806"/>
 <path fill="none" stroke="rgb(253,215,0)" stroke-linejoin="round" d="M 11676,11956 L 11676,11806"/>
 <path fill="none" stroke="rgb(253,215,0)" stroke-linejoin="round" d="M 11676,11956 L 11676,11806"/>
 <path fill="none" stroke="rgb(253,215,0)" stroke-linejoin="round" d="M 16008,11956 L 16008,11806"/>
 <path fill="none" stroke="rgb(253,215,0)" stroke-linejoin="round" d="M 16008,11956 L 16008,11806"/>
 <path fill="none" stroke="rgb(253,215,0)" stroke-linejoin="round" d="M 20340,11956 L 20340,11806"/>
 <path fill="none" stroke="rgb(253,215,0)" stroke-linejoin="round" d="M 20340,11956 L 20340,11806"/>
 <path fill="none" stroke="rgb(253,215,0)" stroke-linejoin="round" d="M 24673,11956 L 24673,11806"/>
 <path fill="none" stroke="rgb(253,215,0)" stroke-linejoin="round" d="M 24673,11956 L 24673,11806"/>
 <path fill="none" stroke="rgb(253,215,0)" stroke-linejoin="round" d="M 3012,11806 L 24673,11806"/>
 <path fill="none" stroke="rgb(253,215,0)" stroke-linejoin="round" d="M 2862,11806 L 3012,11806"/>
 <path fill="none" stroke="rgb(253,215,0)" stroke-linejoin="round" d="M 2862,11806 L 3012,11806"/>
 <path fill="none" stroke="rgb(253,215,0)" stroke-linejoin="round" d="M 2862,10543 L 3012,10543"/>
 <path fill="none" stroke="rgb(253,215,0)" stroke-linejoin="round" d="M 2862,10543 L 3012,10543"/>
 <path fill="none" stroke="rgb(253,215,0)" stroke-linejoin="round" d="M 2862,9280 L 3012,9280"/>
 <path fill="none" stroke="rgb(253,215,0)" stroke-linejoin="round" d="M 2862,9280 L 3012,9280"/>
 <path fill="none" stroke="rgb(253,215,0)" stroke-linejoin="round" d="M 2862,8017 L 3012,8017"/>
 <path fill="none" stroke="rgb(253,215,0)" stroke-linejoin="round" d="M 2862,8017 L 3012,8017"/>
 <path fill="none" stroke="rgb(253,215,0)" stroke-linejoin="round" d="M 2862,6754 L 3012,6754"/>
 <path fill="none" stroke="rgb(253,215,0)" stroke-linejoin="round" d="M 2862,6754 L 3012,6754"/>
 <path fill="none" stroke="rgb(253,215,0)" stroke-linejoin="round" d="M 2862,5492 L 3012,5492"/>
 <path fill="none" stroke="rgb(253,215,0)" stroke-linejoin="round" d="M 2862,5492 L 3012,5492"/>
 <path fill="none" stroke="rgb(253,215,0)" stroke-linejoin="round" d="M 2862,4228 L 3012,4228"/>
 <path fill="none" stroke="rgb(253,215,0)" stroke-linejoin="round" d="M 2862,4228 L 3012,4228"/>
 <path fill="none" stroke="rgb(253,215,0)" stroke-linejoin="round" d="M 2862,2966 L 3012,2966"/>
 <path fill="none" stroke="rgb(253,215,0)" stroke-linejoin="round" d="M 2862,2966 L 3012,2966"/>
 <path fill="none" stroke="rgb(253,215,0)" stroke-linejoin="round" d="M 2862,1703 L 3012,1703"/>
 <path fill="none" stroke="rgb(253,215,0)" stroke-linejoin="round" d="M 2862,1703 L 3012,1703"/>
 <path fill="none" stroke="rgb(253,215,0)" stroke-linejoin="round" d="M 2862,440 L 3012,440"/>
 <path fill="none" stroke="rgb(253,215,0)" stroke-linejoin="round" d="M 2862,440 L 3012,440"/>
 <path fill="none" stroke="rgb(253,215,0)" stroke-linejoin="round" d="M 3012,11806 L 3012,440"/>
 <path fill="rgb(27,61,47)" stroke="none" d="M 21423,11806 L 23589,11806 23589,2716 21423,2716 21423,11806 Z"/>
 <path fill="rgb(27,61,47)" stroke="none" d="M 17091,11806 L 19257,11806 19257,3829 17091,3829 17091,11806 Z"/>
 <path fill="rgb(27,61,47)" stroke="none" d="M 12758,11806 L 14925,11806 14925,9779 12758,9779 12758,11806 Z"/>
 <path fill="rgb(27,61,47)" stroke="none" d="M 8427,11806 L 10593,11806 10593,10706 8427,10706 8427,11806 Z"/>
 <path fill="rgb(27,61,47)" stroke="none" d="M 4095,11806 L 6261,11806 6261,9490 4095,9490 4095,11806 Z"/>
 <path fill="none" stroke="rgb(159,144,101)" stroke-width="100" stroke-linejoin="round" d="M 5178,9630 L 5178,9490 5178,9350"/>
 <path fill="none" stroke="rgb(159,144,101)" stroke-width="100" stroke-linejoin="round" d="M 5278,9630 L 5078,9630"/>
 <path fill="none" stroke="rgb(159,144,101)" stroke-width="100" stroke-linejoin="round" d="M 5078,9350 L 5278,9350"/>
 <path fill="none" stroke="rgb(159,144,101)" stroke-width="100" stroke-linejoin="round" d="M 9510,10785 L 9510,10706 9510,10626"/>
 <path fill="none" stroke="rgb(159,144,101)" stroke-width="100" stroke-linejoin="round" d="M 9610,10785 L 9410,10785"/>
 <path fill="none" stroke="rgb(159,144,101)" stroke-width="100" stroke-linejoin="round" d="M 9410,10626 L 9610,10626"/>
 <path fill="none" stroke="rgb(159,144,101)" stroke-width="100" stroke-linejoin="round" d="M 13841,9948 L 13841,9779 13841,9611"/>
 <path fill="none" stroke="rgb(159,144,101)" stroke-width="100" stroke-linejoin="round" d="M 13941,9948 L 13741,9948"/>
 <path fill="none" stroke="rgb(159,144,101)" stroke-width="100" stroke-linejoin="round" d="M 13741,9611 L 13941,9611"/>
 <path fill="none" stroke="rgb(159,144,101)" stroke-width="100" stroke-linejoin="round" d="M 18174,5054 L 18174,3829 18174,2604"/>
 <path fill="none" stroke="rgb(159,144,101)" stroke-width="100" stroke-linejoin="round" d="M 18274,5054 L 18074,5054"/>
 <path fill="none" stroke="rgb(159,144,101)" stroke-width="100" stroke-linejoin="round" d="M 18074,2604 L 18274,2604"/>
 <path fill="none" stroke="rgb(159,144,101)" stroke-width="100" stroke-linejoin="round" d="M 22506,4264 L 22506,2716 22506,1168"/>
 <path fill="none" stroke="rgb(159,144,101)" stroke-width="100" stroke-linejoin="round" d="M 22606,4264 L 22406,4264"/>
 <path fill="none" stroke="rgb(159,144,101)" stroke-width="100" stroke-linejoin="round" d="M 22406,1168 L 22606,1168"/>
 <text class="SVGTextShape"><tspan class="TextParagraph" font-family="Liberation Sans, sans-serif" font-size="423px" font-weight="700"><tspan class="TextPosition" x="3246" y="12426"><tspan fill="rgb(159,144,101)" stroke="none" style="white-space: pre">streamFoldChunks</tspan></tspan></tspan></text>
 <text class="SVGTextShape"><tspan class="TextParagraph" font-family="Liberation Sans, sans-serif" font-size="423px" font-weight="700"><tspan class="TextPosition" x="7644" y="12426"><tspan fill="rgb(159,144,101)" stroke="none" style="white-space: pre">streamFoldStrings</tspan></tspan></tspan></text>
 <text class="SVGTextShape"><tspan class="TextParagraph" font-family="Liberation Sans, sans-serif" font-size="423px" font-weight="700"><tspan class="TextPosition" x="12163" y="12426"><tspan fill="rgb(159,144,101)" stroke="none" style="white-space: pre">fs2ReadAllBytes</tspan></tspan></tspan></text>
 <text class="SVGTextShape"><tspan class="TextParagraph" font-family="Liberation Sans, sans-serif" font-size="423px" font-weight="700"><tspan class="TextPosition" x="16481" y="12426"><tspan fill="rgb(159,144,101)" stroke="none" style="white-space: pre">nioReadAllBytes</tspan></tspan></tspan></text>
 <text class="SVGTextShape"><tspan class="TextParagraph" font-family="Liberation Sans, sans-serif" font-size="423px" font-weight="700"><tspan class="TextPosition" x="20959" y="12426"><tspan fill="rgb(159,144,101)" stroke="none" style="white-space: pre">nioInputStream</tspan></tspan></tspan></text>
 <text class="SVGTextShape"><tspan class="TextParagraph" font-family="Liberation Sans, sans-serif" font-size="353px" font-weight="700"><tspan class="TextPosition" x="2392" y="11927"><tspan fill="rgb(159,144,101)" stroke="none" style="white-space: pre">60</tspan></tspan></tspan></text>
 <text class="SVGTextShape"><tspan class="TextParagraph" font-family="Liberation Sans, sans-serif" font-size="353px" font-weight="700"><tspan class="TextPosition" x="2392" y="10664"><tspan fill="rgb(159,144,101)" stroke="none" style="white-space: pre">75</tspan></tspan></tspan></text>
 <text class="SVGTextShape"><tspan class="TextParagraph" font-family="Liberation Sans, sans-serif" font-size="353px" font-weight="700"><tspan class="TextPosition" x="2392" y="9401"><tspan fill="rgb(159,144,101)" stroke="none" style="white-space: pre">90</tspan></tspan></tspan></text>
 <text class="SVGTextShape"><tspan class="TextParagraph" font-family="Liberation Sans, sans-serif" font-size="353px" font-weight="700"><tspan class="TextPosition" x="2206" y="8138"><tspan fill="rgb(159,144,101)" stroke="none" style="white-space: pre">105</tspan></tspan></tspan></text>
 <text class="SVGTextShape"><tspan class="TextParagraph" font-family="Liberation Sans, sans-serif" font-size="353px" font-weight="700"><tspan class="TextPosition" x="2206" y="6875"><tspan fill="rgb(159,144,101)" stroke="none" style="white-space: pre">120</tspan></tspan></tspan></text>
 <text class="SVGTextShape"><tspan class="TextParagraph" font-family="Liberation Sans, sans-serif" font-size="353px" font-weight="700"><tspan class="TextPosition" x="2206" y="5612"><tspan fill="rgb(159,144,101)" stroke="none" style="white-space: pre">135</tspan></tspan></tspan></text>
 <text class="SVGTextShape"><tspan class="TextParagraph" font-family="Liberation Sans, sans-serif" font-size="353px" font-weight="700"><tspan class="TextPosition" x="2206" y="4348"><tspan fill="rgb(159,144,101)" stroke="none" style="white-space: pre">150</tspan></tspan></tspan></text>
 <text class="SVGTextShape"><tspan class="TextParagraph" font-family="Liberation Sans, sans-serif" font-size="353px" font-weight="700"><tspan class="TextPosition" x="2206" y="3086"><tspan fill="rgb(159,144,101)" stroke="none" style="white-space: pre">165</tspan></tspan></tspan></text>
 <text class="SVGTextShape"><tspan class="TextParagraph" font-family="Liberation Sans, sans-serif" font-size="353px" font-weight="700"><tspan class="TextPosition" x="2206" y="1823"><tspan fill="rgb(159,144,101)" stroke="none" style="white-space: pre">180</tspan></tspan></tspan></text>
 <text class="SVGTextShape"><tspan class="TextParagraph" font-family="Liberation Sans, sans-serif" font-size="353px" font-weight="700"><tspan class="TextPosition" x="2206" y="560"><tspan fill="rgb(159,144,101)" stroke="none" style="white-space: pre">195</tspan></tspan></tspan></text>
 <text class="SVGTextShape"><tspan class="TextParagraph" font-family="Liberation Sans, sans-serif" font-size="423px" font-weight="700"><tspan class="TextPosition" x="4768" y="10794"><tspan fill="rgb(159,144,101)" stroke="none" style="white-space: pre">87,5</tspan></tspan></tspan></text>
 <text class="SVGTextShape"><tspan class="TextParagraph" font-family="Liberation Sans, sans-serif" font-size="423px" font-weight="700"><tspan class="TextPosition" x="8862" y="11402"><tspan fill="rgb(159,144,101)" stroke="none" style="white-space: pre">73,062</tspan></tspan></tspan></text>
 <text class="SVGTextShape"><tspan class="TextParagraph" font-family="Liberation Sans, sans-serif" font-size="423px" font-weight="700"><tspan class="TextPosition" x="13194" y="10938"><tspan fill="rgb(159,144,101)" stroke="none" style="white-space: pre">84,065</tspan></tspan></tspan></text>
 <text class="SVGTextShape"><tspan class="TextParagraph" font-family="Liberation Sans, sans-serif" font-size="423px" font-weight="700"><tspan class="TextPosition" x="17407" y="7963"><tspan fill="rgb(159,144,101)" stroke="none" style="white-space: pre">154,741</tspan></tspan></tspan></text>
 <text class="SVGTextShape"><tspan class="TextParagraph" font-family="Liberation Sans, sans-serif" font-size="423px" font-weight="700"><tspan class="TextPosition" x="21739" y="7406"><tspan fill="rgb(159,144,101)" stroke="none" style="white-space: pre">167,967</tspan></tspan></tspan></text>
 <text class="SVGTextShape"><tspan class="TextParagraph" font-family="Liberation Sans, sans-serif" font-size="423px" font-weight="700"><tspan class="TextPosition" x="514" y="6520"><tspan fill="rgb(159,144,101)" stroke="none" style="white-space: pre">ops/s</tspan></tspan></tspan></text>
</svg>