<?xml version="1.0" encoding="UTF-8"?>
<!DOCTYPE svg PUBLIC "-//W3C//DTD SVG 1.1//EN" "http://www.w3.org/Graphics/SVG/1.1/DTD/svg11.dtd">
<svg width="219mm" height="128mm" viewBox="0 0 21900 12800" version="1.1" xmlns="http://www.w3.org/2000/svg" xmlns:xlink="http://www.w3.org/1999/xlink" stroke-width="28.222" stroke-linejoin="round" xml:space="preserve">
 <path fill="none" stroke="none" d="M 10931,12762 L -13,12762 -13,-13 21875,-13 21875,12762 10931,12762 Z"/>
 <path fill="none" stroke="rgb(253,215,0)" stroke-linejoin="round" d="M 12364,11807 L 3290,11807 3290,441 21438,441 21438,11807 12364,11807 Z"/>
 <path fill="none" stroke="rgb(253,215,0)" stroke-linejoin="round" d="M 21438,11806 L 3290,11806"/>
 <path fill="none" stroke="rgb(253,215,0)" stroke-linejoin="round" d="M 21438,9911 L 3290,9911"/>
 <path fill="none" stroke="rgb(253,215,0)" stroke-linejoin="round" d="M 21438,8017 L 3290,8017"/>
 <path fill="none" stroke="rgb(253,215,0)" stroke-linejoin="round" d="M 21438,6123 L 3290,6123"/>
 <path fill="none" stroke="rgb(253,215,0)" stroke-linejoin="round" d="M 21438,4229 L 3290,4229"/>
 <path fill="none" stroke="rgb(253,215,0)" stroke-linejoin="round" d="M 21438,2334 L 3290,2334"/>
 <path fill="none" stroke="rgb(253,215,0)" stroke-linejoin="round" d="M 21438,440 L 3290,440"/>
 <path fill="none" stroke="rgb(253,215,0)" stroke-linejoin="round" d="M 3290,11956 L 3290,11806"/>
 <path fill="none" stroke="rgb(253,215,0)" stroke-linejoin="round" d="M 3290,11956 L 3290,11806"/>
 <path fill="none" stroke="rgb(253,215,0)" stroke-linejoin="round" d="M 12363,11956 L 12363,11806"/>
 <path fill="none" stroke="rgb(253,215,0)" stroke-linejoin="round" d="M 12363,11956 L 12363,11806"/>
 <path fill="none" stroke="rgb(253,215,0)" stroke-linejoin="round" d="M 21438,11956 L 21438,11806"/>
 <path fill="none" stroke="rgb(253,215,0)" stroke-linejoin="round" d="M 21438,11956 L 21438,11806"/>
 <path fill="none" stroke="rgb(253,215,0)" stroke-linejoin="round" d="M 3290,11806 L 21438,11806"/>
 <path fill="none" stroke="rgb(253,215,0)" stroke-linejoin="round" d="M 3140,11806 L 3290,11806"/>
 <path fill="none" stroke="rgb(253,215,0)" stroke-linejoin="round" d="M 3140,11806 L 3290,11806"/>
 <path fill="none" stroke="rgb(253,215,0)" stroke-linejoin="round" d="M 3140,9911 L 3290,9911"/>
 <path fill="none" stroke="rgb(253,215,0)" stroke-linejoin="round" d="M 3140,9911 L 3290,9911"/>
 <path fill="none" stroke="rgb(253,215,0)" stroke-linejoin="round" d="M 3140,8017 L 3290,8017"/>
 <path fill="none" stroke="rgb(253,215,0)" stroke-linejoin="round" d="M 3140,8017 L 3290,8017"/>
 <path fill="none" stroke="rgb(253,215,0)" stroke-linejoin="round" d="M 3140,6123 L 3290,6123"/>
 <path fill="none" stroke="rgb(253,215,0)" stroke-linejoin="round" d="M 3140,6123 L 3290,6123"/>
 <path fill="none" stroke="rgb(253,215,0)" stroke-linejoin="round" d="M 3140,4228 L 3290,4228"/>
 <path fill="none" stroke="rgb(253,215,0)" stroke-linejoin="round" d="M 3140,4228 L 3290,4228"/>
 <path fill="none" stroke="rgb(253,215,0)" stroke-linejoin="round" d="M 3140,2334 L 3290,2334"/>
 <path fill="none" stroke="rgb(253,215,0)" stroke-linejoin="round" d="M 3140,2334 L 3290,2334"/>
 <path fill="none" stroke="rgb(253,215,0)" stroke-linejoin="round" d="M 3140,440 L 3290,440"/>
 <path fill="none" stroke="rgb(253,215,0)" stroke-linejoin="round" d="M 3140,440 L 3290,440"/>
 <path fill="none" stroke="rgb(253,215,0)" stroke-linejoin="round" d="M 3290,11806 L 3290,440"/>
 <path fill="rgb(27,61,47)" stroke="none" d="M 14632,11806 L 19169,11806 19169,2365 14632,2365 14632,11806 Z"/>
 <path fill="rgb(27,61,47)" stroke="none" d="M 5558,11806 L 10095,11806 10095,5014 5558,5014 5558,11806 Z"/>
 <path fill="none" stroke="rgb(159,144,101)" stroke-width="100" stroke-linejoin="round" d="M 7827,7338 L 7827,5014 7827,2688"/>
 <path fill="none" stroke="rgb(159,144,101)" stroke-width="100" stroke-linejoin="round" d="M 7927,7338 L 7727,7338"/>
 <path fill="none" stroke="rgb(159,144,101)" stroke-width="100" stroke-linejoin="round" d="M 7727,2688 L 7927,2688"/>
 <path fill="none" stroke="rgb(159,144,101)" stroke-width="100" stroke-linejoin="round" d="M 16900,3384 L 16900,2365 16900,1345"/>
 <path fill="none" stroke="rgb(159,144,101)" stroke-width="100" stroke-linejoin="round" d="M 17000,3384 L 16800,3384"/>
 <path fill="none" stroke="rgb(159,144,101)" stroke-width="100" stroke-linejoin="round" d="M 16800,1345 L 17000,1345"/>
 <text class="SVGTextShape"><tspan class="TextParagraph" font-family="Liberation Sans, sans-serif" font-size="423px" font-weight="700"><tspan class="TextPosition" x="5895" y="12426"><tspan fill="rgb(159,144,101)" stroke="none" style="white-space: pre">streamFoldChunks</tspan></tspan></tspan></text>
 <text class="SVGTextShape"><tspan class="TextParagraph" font-family="Liberation Sans, sans-serif" font-size="423px" font-weight="700"><tspan class="TextPosition" x="15035" y="12426"><tspan fill="rgb(159,144,101)" stroke="none" style="white-space: pre">streamFoldStrings</tspan></tspan></tspan></text>
 <text class="SVGTextShape"><tspan class="TextParagraph" font-family="Liberation Sans, sans-serif" font-size="353px" font-weight="700"><tspan class="TextPosition" x="2484" y="11927"><tspan fill="rgb(159,144,101)" stroke="none" style="white-space: pre">900</tspan></tspan></tspan></text>
 <text class="SVGTextShape"><tspan class="TextParagraph" font-family="Liberation Sans, sans-serif" font-size="353px" font-weight="700"><tspan class="TextPosition" x="2484" y="10032"><tspan fill="rgb(159,144,101)" stroke="none" style="white-space: pre">925</tspan></tspan></tspan></text>
 <text class="SVGTextShape"><tspan class="TextParagraph" font-family="Liberation Sans, sans-serif" font-size="353px" font-weight="700"><tspan class="TextPosition" x="2484" y="8138"><tspan fill="rgb(159,144,101)" stroke="none" style="white-space: pre">950</tspan></tspan></tspan></text>
 <text class="SVGTextShape"><tspan class="TextParagraph" font-family="Liberation Sans, sans-serif" font-size="353px" font-weight="700"><tspan class="TextPosition" x="2484" y="6243"><tspan fill="rgb(159,144,101)" stroke="none" style="white-space: pre">975</tspan></tspan></tspan></text>
 <text class="SVGTextShape"><tspan class="TextParagraph" font-family="Liberation Sans, sans-serif" font-size="353px" font-weight="700"><tspan class="TextPosition" x="2299" y="4348"><tspan fill="rgb(159,144,101)" stroke="none" style="white-space: pre">1000</tspan></tspan></tspan></text>
 <text class="SVGTextShape"><tspan class="TextParagraph" font-family="Liberation Sans, sans-serif" font-size="353px" font-weight="700"><tspan class="TextPosition" x="2299" y="2454"><tspan fill="rgb(159,144,101)" stroke="none" style="white-space: pre">1025</tspan></tspan></tspan></text>
 <text class="SVGTextShape"><tspan class="TextParagraph" font-family="Liberation Sans, sans-serif" font-size="353px" font-weight="700"><tspan class="TextPosition" x="2299" y="560"><tspan fill="rgb(159,144,101)" stroke="none" style="white-space: pre">1050</tspan></tspan></tspan></text>
 <text class="SVGTextShape"><tspan class="TextParagraph" font-family="Liberation Sans, sans-serif" font-size="423px" font-weight="700"><tspan class="TextPosition" x="7179" y="8555"><tspan fill="rgb(159,144,101)" stroke="none" style="white-space: pre">989,64</tspan></tspan></tspan></text>
 <text class="SVGTextShape"><tspan class="TextParagraph" font-family="Liberation Sans, sans-serif" font-size="423px" font-weight="700"><tspan class="TextPosition" x="16014" y="7231"><tspan fill="rgb(159,144,101)" stroke="none" style="white-space: pre">1024,592</tspan></tspan></tspan></text>
 <text class="SVGTextShape"><tspan class="TextParagraph" font-family="DejaVu Sans, sans-serif" font-size="423px" font-weight="700"><tspan class="TextPosition" x="514" y="6521"><tspan fill="rgb(159,144,101)" stroke="none" style="white-space: pre">ops/s</tspan></tspan></tspan></text>
</svg>