<?xml version="1.0" encoding="UTF-8"?>
<!DOCTYPE svg PUBLIC "-//W3C//DTD SVG 1.1//EN" "http://www.w3.org/Graphics/SVG/1.1/DTD/svg11.dtd">
<svg width="252mm" height="128mm" viewBox="0 0 25200 12800" version="1.1" xmlns="http://www.w3.org/2000/svg" xmlns:xlink="http://www.w3.org/1999/xlink" stroke-width="28.222" stroke-linejoin="round" xml:space="preserve">
 <path fill="none" stroke="none" d="M 12582,12762 L -13,12762 -13,-13 25176,-13 25176,12762 12582,12762 Z"/>
 <path fill="none" stroke="rgb(253,215,0)" stroke-linejoin="round" d="M 13935,11807 L 3197,11807 3197,441 24673,441 24673,11807 13935,11807 Z"/>
 <path fill="none" stroke="rgb(253,215,0)" stroke-linejoin="round" d="M 24673,11806 L 3197,11806"/>
 <path fill="none" stroke="rgb(253,215,0)" stroke-linejoin="round" d="M 24673,10543 L 3197,10543"/>
 <path fill="none" stroke="rgb(253,215,0)" stroke-linejoin="round" d="M 24673,9280 L 3197,9280"/>
 <path fill="none" stroke="rgb(253,215,0)" stroke-linejoin="round" d="M 24673,8016 L 3197,8016"/>
 <path fill="none" stroke="rgb(253,215,0)" stroke-linejoin="round" d="M 24673,6754 L 3197,6754"/>
 <path fill="none" stroke="rgb(253,215,0)" stroke-linejoin="round" d="M 24673,5492 L 3197,5492"/>
 <path fill="none" stroke="rgb(253,215,0)" stroke-linejoin="round" d="M 24673,4229 L 3197,4229"/>
 <path fill="none" stroke="rgb(253,215,0)" stroke-linejoin="round" d="M 24673,2966 L 3197,2966"/>
 <path fill="none" stroke="rgb(253,215,0)" stroke-linejoin="round" d="M 24673,1703 L 3197,1703"/>
 <path fill="none" stroke="rgb(253,215,0)" stroke-linejoin="round" d="M 24673,440 L 3197,440"/>
 <path fill="none" stroke="rgb(253,215,0)" stroke-linejoin="round" d="M 3197,11956 L 3197,11806"/>
 <path fill="none" stroke="rgb(253,215,0)" stroke-linejoin="round" d="M 3197,11956 L 3197,11806"/>
 <path fill="none" stroke="rgb(253,215,0)" stroke-linejoin="round" d="M 8566,11956 L 8566,11806"/>
 <path fill="none" stroke="rgb(253,215,0)" stroke-linejoin="round" d="M 8566,11956 L 8566,11806"/>
 <path fill="none" stroke="rgb(253,215,0)" stroke-linejoin="round" d="M 13934,11956 L 13934,11806"/>
 <path fill="none" stroke="rgb(253,215,0)" stroke-linejoin="round" d="M 13934,11956 L 13934,11806"/>
 <path fill="none" stroke="rgb(253,215,0)" stroke-linejoin="round" d="M 19303,11956 L 19303,11806"/>
 <path fill="none" stroke="rgb(253,215,0)" stroke-linejoin="round" d="M 19303,11956 L 19303,11806"/>
 <path fill="none" stroke="rgb(253,215,0)" stroke-linejoin="round" d="M 24673,11956 L 24673,11806"/>
 <path fill="none" stroke="rgb(253,215,0)" stroke-linejoin="round" d="M 24673,11956 L 24673,11806"/>
 <path fill="none" stroke="rgb(253,215,0)" stroke-linejoin="round" d="M 3197,11806 L 24673,11806"/>
 <path fill="none" stroke="rgb(253,215,0)" stroke-linejoin="round" d="M 3047,11806 L 3197,11806"/>
 <path fill="none" stroke="rgb(253,215,0)" stroke-linejoin="round" d="M 3047,11806 L 3197,11806"/>
 <path fill="none" stroke="rgb(253,215,0)" stroke-linejoin="round" d="M 3047,10543 L 3197,10543"/>
 <path fill="none" stroke="rgb(253,215,0)" stroke-linejoin="round" d="M 3047,10543 L 3197,10543"/>
 <path fill="none" stroke="rgb(253,215,0)" stroke-linejoin="round" d="M 3047,9280 L 3197,9280"/>
 <path fill="none" stroke="rgb(253,215,0)" stroke-linejoin="round" d="M 3047,9280 L 3197,9280"/>
 <path fill="none" stroke="rgb(253,215,0)" stroke-linejoin="round" d="M 3047,8017 L 3197,8017"/>
 <path fill="none" stroke="rgb(253,215,0)" stroke-linejoin="round" d="M 3047,8017 L 3197,8017"/>
 <path fill="none" stroke="rgb(253,215,0)" stroke-linejoin="round" d="M 3047,6754 L 3197,6754"/>
 <path fill="none" stroke="rgb(253,215,0)" stroke-linejoin="round" d="M 3047,6754 L 3197,6754"/>
 <path fill="none" stroke="rgb(253,215,0)" stroke-linejoin="round" d="M 3047,5492 L 3197,5492"/>
 <path fill="none" stroke="rgb(253,215,0)" stroke-linejoin="round" d="M 3047,5492 L 3197,5492"/>
 <path fill="none" stroke="rgb(253,215,0)" stroke-linejoin="round" d="M 3047,4229 L 3197,4229"/>
 <path fill="none" stroke="rgb(253,215,0)" stroke-linejoin="round" d="M 3047,4229 L 3197,4229"/>
 <path fill="none" stroke="rgb(253,215,0)" stroke-linejoin="round" d="M 3047,2966 L 3197,2966"/>
 <path fill="none" stroke="rgb(253,215,0)" stroke-linejoin="round" d="M 3047,2966 L 3197,2966"/>
 <path fill="none" stroke="rgb(253,215,0)" stroke-linejoin="round" d="M 3047,1703 L 3197,1703"/>
 <path fill="none" stroke="rgb(253,215,0)" stroke-linejoin="round" d="M 3047,1703 L 3197,1703"/>
 <path fill="none" stroke="rgb(253,215,0)" stroke-linejoin="round" d="M 3047,440 L 3197,440"/>
 <path fill="none" stroke="rgb(253,215,0)" stroke-linejoin="round" d="M 3047,440 L 3197,440"/>
 <path fill="none" stroke="rgb(253,215,0)" stroke-linejoin="round" d="M 3197,11806 L 3197,440"/>
 <path fill="rgb(27,61,47)" stroke="none" d="M 20646,11806 L 23330,11806 23330,1307 20646,1307 20646,11806 Z"/>
 <path fill="rgb(27,61,47)" stroke="none" d="M 15276,11806 L 17961,11806 17961,9883 15276,9883 15276,11806 Z"/>
 <path fill="rgb(27,61,47)" stroke="none" d="M 9908,11806 L 12592,11806 12592,10232 9908,10232 9908,11806 Z"/>
 <path fill="rgb(27,61,47)" stroke="none" d="M 4539,11806 L 7223,11806 7223,10673 4539,10673 4539,11806 Z"/>
 <path fill="none" stroke="rgb(159,144,101)" stroke-width="100" stroke-linejoin="round" d="M 5881,11061 L 5881,10673 5881,10286"/>
 <path fill="none" stroke="rgb(159,144,101)" stroke-width="100" stroke-linejoin="round" d="M 5981,11061 L 5781,11061"/>
 <path fill="none" stroke="rgb(159,144,101)" stroke-width="100" stroke-linejoin="round" d="M 5781,10286 L 5981,10286"/>
 <path fill="none" stroke="rgb(159,144,101)" stroke-width="100" stroke-linejoin="round" d="M 11250,10402 L 11250,10232 11250,10062"/>
 <path fill="none" stroke="rgb(159,144,101)" stroke-width="100" stroke-linejoin="round" d="M 11350,10402 L 11150,10402"/>
 <path fill="none" stroke="rgb(159,144,101)" stroke-width="100" stroke-linejoin="round" d="M 11150,10062 L 11350,10062"/>
 <path fill="none" stroke="rgb(159,144,101)" stroke-width="100" stroke-linejoin="round" d="M 16619,10235 L 16619,9883 16619,9531"/>
 <path fill="none" stroke="rgb(159,144,101)" stroke-width="100" stroke-linejoin="round" d="M 16719,10235 L 16519,10235"/>
 <path fill="none" stroke="rgb(159,144,101)" stroke-width="100" stroke-linejoin="round" d="M 16519,9531 L 16719,9531"/>
 <path fill="none" stroke="rgb(159,144,101)" stroke-width="100" stroke-linejoin="round" d="M 21988,1868 L 21988,1307 21988,745"/>
 <path fill="none" stroke="rgb(159,144,101)" stroke-width="100" stroke-linejoin="round" d="M 22088,1868 L 21888,1868"/>
 <path fill="none" stroke="rgb(159,144,101)" stroke-width="100" stroke-linejoin="round" d="M 21888,745 L 22088,745"/>
 <text class="SVGTextShape"><tspan class="TextParagraph" font-family="Liberation Sans, sans-serif" font-size="423px" font-weight="700"><tspan class="TextPosition" x="3949" y="12426"><tspan fill="rgb(159,144,101)" stroke="none" style="white-space: pre">streamFoldChunks</tspan></tspan></tspan></text>
 <text class="SVGTextShape"><tspan class="TextParagraph" font-family="Liberation Sans, sans-serif" font-size="423px" font-weight="700"><tspan class="TextPosition" x="9384" y="12426"><tspan fill="rgb(159,144,101)" stroke="none" style="white-space: pre">streamFoldStrings</tspan></tspan></tspan></text>
 <text class="SVGTextShape"><tspan class="TextParagraph" font-family="Liberation Sans, sans-serif" font-size="423px" font-weight="700"><tspan class="TextPosition" x="14940" y="12426"><tspan fill="rgb(159,144,101)" stroke="none" style="white-space: pre">fs2ReadAllBytes</tspan></tspan></tspan></text>
 <text class="SVGTextShape"><tspan class="TextParagraph" font-family="Liberation Sans, sans-serif" font-size="423px" font-weight="700"><tspan class="TextPosition" x="20295" y="12426"><tspan fill="rgb(159,144,101)" stroke="none" style="white-space: pre">nioReadAllBytes</tspan></tspan></tspan></text>
 <text class="SVGTextShape"><tspan class="TextParagraph" font-family="Liberation Sans, sans-serif" font-size="353px" font-weight="700"><tspan class="TextPosition" x="2391" y="11927"><tspan fill="rgb(159,144,101)" stroke="none" style="white-space: pre">900</tspan></tspan></tspan></text>
 <text class="SVGTextShape"><tspan class="TextParagraph" font-family="Liberation Sans, sans-serif" font-size="353px" font-weight="700"><tspan class="TextPosition" x="2206" y="10664"><tspan fill="rgb(159,144,101)" stroke="none" style="white-space: pre">1000</tspan></tspan></tspan></text>
 <text class="SVGTextShape"><tspan class="TextParagraph" font-family="Liberation Sans, sans-serif" font-size="353px" font-weight="700"><tspan class="TextPosition" x="2206" y="9401"><tspan fill="rgb(159,144,101)" stroke="none" style="white-space: pre">1100</tspan></tspan></tspan></text>
 <text class="SVGTextShape"><tspan class="TextParagraph" font-family="Liberation Sans, sans-serif" font-size="353px" font-weight="700"><tspan class="TextPosition" x="2206" y="8138"><tspan fill="rgb(159,144,101)" stroke="none" style="white-space: pre">1200</tspan></tspan></tspan></text>
 <text class="SVGTextShape"><tspan class="TextParagraph" font-family="Liberation Sans, sans-serif" font-size="353px" font-weight="700"><tspan class="TextPosition" x="2206" y="6875"><tspan fill="rgb(159,144,101)" stroke="none" style="white-space: pre">1300</tspan></tspan></tspan></text>
 <text class="SVGTextShape"><tspan class="TextParagraph" font-family="Liberation Sans, sans-serif" font-size="353px" font-weight="700"><tspan class="TextPosition" x="2206" y="5612"><tspan fill="rgb(159,144,101)" stroke="none" style="white-space: pre">1400</tspan></tspan></tspan></text>
 <text class="SVGTextShape"><tspan class="TextParagraph" font-family="Liberation Sans, sans-serif" font-size="353px" font-weight="700"><tspan class="TextPosition" x="2206" y="4349"><tspan fill="rgb(159,144,101)" stroke="none" style="white-space: pre">1500</tspan></tspan></tspan></text>
 <text class="SVGTextShape"><tspan class="TextParagraph" font-family="Liberation Sans, sans-serif" font-size="353px" font-weight="700"><tspan class="TextPosition" x="2206" y="3086"><tspan fill="rgb(159,144,101)" stroke="none" style="white-space: pre">1600</tspan></tspan></tspan></text>
 <text class="SVGTextShape"><tspan class="TextParagraph" font-family="Liberation Sans, sans-serif" font-size="353px" font-weight="700"><tspan class="TextPosition" x="2206" y="1823"><tspan fill="rgb(159,144,101)" stroke="none" style="white-space: pre">1700</tspan></tspan></tspan></text>
 <text class="SVGTextShape"><tspan class="TextParagraph" font-family="Liberation Sans, sans-serif" font-size="353px" font-weight="700"><tspan class="TextPosition" x="2206" y="560"><tspan fill="rgb(159,144,101)" stroke="none" style="white-space: pre">1800</tspan></tspan></tspan></text>
 <text class="SVGTextShape"><tspan class="TextParagraph" font-family="Liberation Sans, sans-serif" font-size="423px" font-weight="700"><tspan class="TextPosition" x="5233" y="11385"><tspan fill="rgb(159,144,101)" stroke="none" style="white-space: pre">989,64</tspan></tspan></tspan></text>
 <text class="SVGTextShape"><tspan class="TextParagraph" font-family="Liberation Sans, sans-serif" font-size="423px" font-weight="700"><tspan class="TextPosition" x="10363" y="11165"><tspan fill="rgb(159,144,101)" stroke="none" style="white-space: pre">1024,592</tspan></tspan></tspan></text>
 <text class="SVGTextShape"><tspan class="TextParagraph" font-family="Liberation Sans, sans-serif" font-size="423px" font-weight="700"><tspan class="TextPosition" x="15733" y="10990"><tspan fill="rgb(159,144,101)" stroke="none" style="white-space: pre">1052,197</tspan></tspan></tspan></text>
 <text class="SVGTextShape"><tspan class="TextParagraph" font-family="Liberation Sans, sans-serif" font-size="423px" font-weight="700"><tspan class="TextPosition" x="21102" y="6702"><tspan fill="rgb(159,144,101)" stroke="none" style="white-space: pre">1731,353</tspan></tspan></tspan></text>
 <text class="SVGTextShape"><tspan class="TextParagraph" font-family="Liberation Sans, sans-serif" font-size="423px" font-weight="700"><tspan class="TextPosition" x="514" y="6520"><tspan fill="rgb(159,144,101)" stroke="none" style="white-space: pre">ops/s</tspan></tspan></tspan></text>
</svg>