<?xml version="1.0" encoding="UTF-8"?>
<!DOCTYPE svg PUBLIC "-//W3C//DTD SVG 1.1//EN" "http://www.w3.org/Graphics/SVG/1.1/DTD/svg11.dtd">
<svg width="219mm" height="128mm" viewBox="0 0 21900 12800" version="1.1" xmlns="http://www.w3.org/2000/svg" xmlns:xlink="http://www.w3.org/1999/xlink" stroke-width="28.222" stroke-linejoin="round" xml:space="preserve">
 <path fill="none" stroke="none" d="M 10931,12762 L -13,12762 -13,-13 21875,-13 21875,12762 10931,12762 Z"/>
 <path fill="none" stroke="rgb(253,215,0)" stroke-linejoin="round" d="M 12284,11807 L 3131,11807 3131,441 21438,441 21438,11807 12284,11807 Z"/>
 <path fill="none" stroke="rgb(253,215,0)" stroke-linejoin="round" d="M 21438,11806 L 3131,11806"/>
 <path fill="none" stroke="rgb(253,215,0)" stroke-linejoin="round" d="M 21438,10385 L 3131,10385"/>
 <path fill="none" stroke="rgb(253,215,0)" stroke-linejoin="round" d="M 21438,8964 L 3131,8964"/>
 <path fill="none" stroke="rgb(253,215,0)" stroke-linejoin="round" d="M 21438,7543 L 3131,7543"/>
 <path fill="none" stroke="rgb(253,215,0)" stroke-linejoin="round" d="M 21438,6123 L 3131,6123"/>
 <path fill="none" stroke="rgb(253,215,0)" stroke-linejoin="round" d="M 21438,4702 L 3131,4702"/>
 <path fill="none" stroke="rgb(253,215,0)" stroke-linejoin="round" d="M 21438,3281 L 3131,3281"/>
 <path fill="none" stroke="rgb(253,215,0)" stroke-linejoin="round" d="M 21438,1860 L 3131,1860"/>
 <path fill="none" stroke="rgb(253,215,0)" stroke-linejoin="round" d="M 21438,440 L 3131,440"/>
 <path fill="none" stroke="rgb(253,215,0)" stroke-linejoin="round" d="M 3131,11956 L 3131,11806"/>
 <path fill="none" stroke="rgb(253,215,0)" stroke-linejoin="round" d="M 3131,11956 L 3131,11806"/>
 <path fill="none" stroke="rgb(253,215,0)" stroke-linejoin="round" d="M 9233,11956 L 9233,11806"/>
 <path fill="none" stroke="rgb(253,215,0)" stroke-linejoin="round" d="M 9233,11956 L 9233,11806"/>
 <path fill="none" stroke="rgb(253,215,0)" stroke-linejoin="round" d="M 15335,11956 L 15335,11806"/>
 <path fill="none" stroke="rgb(253,215,0)" stroke-linejoin="round" d="M 15335,11956 L 15335,11806"/>
 <path fill="none" stroke="rgb(253,215,0)" stroke-linejoin="round" d="M 21438,11956 L 21438,11806"/>
 <path fill="none" stroke="rgb(253,215,0)" stroke-linejoin="round" d="M 21438,11956 L 21438,11806"/>
 <path fill="none" stroke="rgb(253,215,0)" stroke-linejoin="round" d="M 3131,11806 L 21438,11806"/>
 <path fill="none" stroke="rgb(253,215,0)" stroke-linejoin="round" d="M 2981,11806 L 3131,11806"/>
 <path fill="none" stroke="rgb(253,215,0)" stroke-linejoin="round" d="M 2981,11806 L 3131,11806"/>
 <path fill="none" stroke="rgb(253,215,0)" stroke-linejoin="round" d="M 2981,10385 L 3131,10385"/>
 <path fill="none" stroke="rgb(253,215,0)" stroke-linejoin="round" d="M 2981,10385 L 3131,10385"/>
 <path fill="none" stroke="rgb(253,215,0)" stroke-linejoin="round" d="M 2981,8964 L 3131,8964"/>
 <path fill="none" stroke="rgb(253,215,0)" stroke-linejoin="round" d="M 2981,8964 L 3131,8964"/>
 <path fill="none" stroke="rgb(253,215,0)" stroke-linejoin="round" d="M 2981,7543 L 3131,7543"/>
 <path fill="none" stroke="rgb(253,215,0)" stroke-linejoin="round" d="M 2981,7543 L 3131,7543"/>
 <path fill="none" stroke="rgb(253,215,0)" stroke-linejoin="round" d="M 2981,6123 L 3131,6123"/>
 <path fill="none" stroke="rgb(253,215,0)" stroke-linejoin="round" d="M 2981,6123 L 3131,6123"/>
 <path fill="none" stroke="rgb(253,215,0)" stroke-linejoin="round" d="M 2981,4702 L 3131,4702"/>
 <path fill="none" stroke="rgb(253,215,0)" stroke-linejoin="round" d="M 2981,4702 L 3131,4702"/>
 <path fill="none" stroke="rgb(253,215,0)" stroke-linejoin="round" d="M 2981,3281 L 3131,3281"/>
 <path fill="none" stroke="rgb(253,215,0)" stroke-linejoin="round" d="M 2981,3281 L 3131,3281"/>
 <path fill="none" stroke="rgb(253,215,0)" stroke-linejoin="round" d="M 2981,1860 L 3131,1860"/>
 <path fill="none" stroke="rgb(253,215,0)" stroke-linejoin="round" d="M 2981,1860 L 3131,1860"/>
 <path fill="none" stroke="rgb(253,215,0)" stroke-linejoin="round" d="M 2981,440 L 3131,440"/>
 <path fill="none" stroke="rgb(253,215,0)" stroke-linejoin="round" d="M 2981,440 L 3131,440"/>
 <path fill="none" stroke="rgb(253,215,0)" stroke-linejoin="round" d="M 3131,11806 L 3131,440"/>
 <path fill="rgb(27,61,47)" stroke="none" d="M 16861,11806 L 19912,11806 19912,3156 16861,3156 16861,11806 Z"/>
 <path fill="rgb(27,61,47)" stroke="none" d="M 10759,11806 L 13809,11806 13809,4725 10759,4725 10759,11806 Z"/>
 <path fill="rgb(27,61,47)" stroke="none" d="M 4656,11806 L 7708,11806 7708,6711 4656,6711 4656,11806 Z"/>
 <path fill="none" stroke="rgb(159,144,101)" stroke-width="100" stroke-linejoin="round" d="M 6182,8455 L 6182,6711 6182,4968"/>
 <path fill="none" stroke="rgb(159,144,101)" stroke-width="100" stroke-linejoin="round" d="M 6282,8455 L 6082,8455"/>
 <path fill="none" stroke="rgb(159,144,101)" stroke-width="100" stroke-linejoin="round" d="M 6082,4968 L 6282,4968"/>
 <path fill="none" stroke="rgb(159,144,101)" stroke-width="100" stroke-linejoin="round" d="M 12284,5490 L 12284,4725 12284,3961"/>
 <path fill="none" stroke="rgb(159,144,101)" stroke-width="100" stroke-linejoin="round" d="M 12384,5490 L 12184,5490"/>
 <path fill="none" stroke="rgb(159,144,101)" stroke-width="100" stroke-linejoin="round" d="M 12184,3961 L 12384,3961"/>
 <path fill="none" stroke="rgb(159,144,101)" stroke-width="100" stroke-linejoin="round" d="M 18386,4741 L 18386,3156 18386,1572"/>
 <path fill="none" stroke="rgb(159,144,101)" stroke-width="100" stroke-linejoin="round" d="M 18486,4741 L 18286,4741"/>
 <path fill="none" stroke="rgb(159,144,101)" stroke-width="100" stroke-linejoin="round" d="M 18286,1572 L 18486,1572"/>
 <text class="SVGTextShape"><tspan class="TextParagraph" font-family="Liberation Sans, sans-serif" font-size="423px" font-weight="700"><tspan class="TextPosition" x="4250" y="12426"><tspan fill="rgb(159,144,101)" stroke="none" style="white-space: pre">streamFoldChunks</tspan></tspan></tspan></text>
 <text class="SVGTextShape"><tspan class="TextParagraph" font-family="Liberation Sans, sans-serif" font-size="423px" font-weight="700"><tspan class="TextPosition" x="10419" y="12426"><tspan fill="rgb(159,144,101)" stroke="none" style="white-space: pre">streamFoldStrings</tspan></tspan></tspan></text>
 <text class="SVGTextShape"><tspan class="TextParagraph" font-family="Liberation Sans, sans-serif" font-size="423px" font-weight="700"><tspan class="TextPosition" x="16707" y="12426"><tspan fill="rgb(159,144,101)" stroke="none" style="white-space: pre">fs2ReadAllBytes</tspan></tspan></tspan></text>
 <text class="SVGTextShape"><tspan class="TextParagraph" font-family="Liberation Sans, sans-serif" font-size="353px" font-weight="700"><tspan class="TextPosition" x="2325" y="11927"><tspan fill="rgb(159,144,101)" stroke="none" style="white-space: pre">900</tspan></tspan></tspan></text>
 <text class="SVGTextShape"><tspan class="TextParagraph" font-family="Liberation Sans, sans-serif" font-size="353px" font-weight="700"><tspan class="TextPosition" x="2325" y="10506"><tspan fill="rgb(159,144,101)" stroke="none" style="white-space: pre">925</tspan></tspan></tspan></text>
 <text class="SVGTextShape"><tspan class="TextParagraph" font-family="Liberation Sans, sans-serif" font-size="353px" font-weight="700"><tspan class="TextPosition" x="2325" y="9085"><tspan fill="rgb(159,144,101)" stroke="none" style="white-space: pre">950</tspan></tspan></tspan></text>
 <text class="SVGTextShape"><tspan class="TextParagraph" font-family="Liberation Sans, sans-serif" font-size="353px" font-weight="700"><tspan class="TextPosition" x="2325" y="7664"><tspan fill="rgb(159,144,101)" stroke="none" style="white-space: pre">975</tspan></tspan></tspan></text>
 <text class="SVGTextShape"><tspan class="TextParagraph" font-family="Liberation Sans, sans-serif" font-size="353px" font-weight="700"><tspan class="TextPosition" x="2140" y="6243"><tspan fill="rgb(159,144,101)" stroke="none" style="white-space: pre">1000</tspan></tspan></tspan></text>
 <text class="SVGTextShape"><tspan class="TextParagraph" font-family="Liberation Sans, sans-serif" font-size="353px" font-weight="700"><tspan class="TextPosition" x="2140" y="4822"><tspan fill="rgb(159,144,101)" stroke="none" style="white-space: pre">1025</tspan></tspan></tspan></text>
 <text class="SVGTextShape"><tspan class="TextParagraph" font-family="Liberation Sans, sans-serif" font-size="353px" font-weight="700"><tspan class="TextPosition" x="2140" y="3401"><tspan fill="rgb(159,144,101)" stroke="none" style="white-space: pre">1050</tspan></tspan></tspan></text>
 <text class="SVGTextShape"><tspan class="TextParagraph" font-family="Liberation Sans, sans-serif" font-size="353px" font-weight="700"><tspan class="TextPosition" x="2140" y="1980"><tspan fill="rgb(159,144,101)" stroke="none" style="white-space: pre">1075</tspan></tspan></tspan></text>
 <text class="SVGTextShape"><tspan class="TextParagraph" font-family="Liberation Sans, sans-serif" font-size="353px" font-weight="700"><tspan class="TextPosition" x="2140" y="560"><tspan fill="rgb(159,144,101)" stroke="none" style="white-space: pre">1100</tspan></tspan></tspan></text>
 <text class="SVGTextShape"><tspan class="TextParagraph" font-family="Liberation Sans, sans-serif" font-size="423px" font-weight="700"><tspan class="TextPosition" x="5534" y="9404"><tspan fill="rgb(159,144,101)" stroke="none" style="white-space: pre">989,64</tspan></tspan></tspan></text>
 <text class="SVGTextShape"><tspan class="TextParagraph" font-family="Liberation Sans, sans-serif" font-size="423px" font-weight="700"><tspan class="TextPosition" x="11398" y="8411"><tspan fill="rgb(159,144,101)" stroke="none" style="white-space: pre">1024,592</tspan></tspan></tspan></text>
 <text class="SVGTextShape"><tspan class="TextParagraph" font-family="Liberation Sans, sans-serif" font-size="423px" font-weight="700"><tspan class="TextPosition" x="17500" y="7626"><tspan fill="rgb(159,144,101)" stroke="none" style="white-space: pre">1052,197</tspan></tspan></tspan></text>
 <text class="SVGTextShape"><tspan class="TextParagraph" font-family="Liberation Sans, sans-serif" font-size="423px" font-weight="700"><tspan class="TextPosition" x="514" y="6520"><tspan fill="rgb(159,144,101)" stroke="none" style="white-space: pre">ops/s</tspan></tspan></tspan></text>
</svg>