<?xml version="1.0" encoding="UTF-8"?>
<!DOCTYPE svg PUBLIC "-//W3C//DTD SVG 1.1//EN" "http://www.w3.org/Graphics/SVG/1.1/DTD/svg11.dtd">
<svg width="252mm" height="128mm" viewBox="0 0 25200 12800" version="1.1" xmlns="http://www.w3.org/2000/svg" xmlns:xlink="http://www.w3.org/1999/xlink" stroke-width="28.222" stroke-linejoin="round" xml:space="preserve">
 <path fill="none" stroke="none" d="M 12582,12762 L -13,12762 -13,-13 25176,-13 25176,12762 12582,12762 Z"/>
 <path fill="none" stroke="rgb(253,215,0)" stroke-linejoin="round" d="M 13935,11808 L 3197,11808 3197,442 24673,442 24673,11808 13935,11808 Z"/>
 <path fill="none" stroke="rgb(253,215,0)" stroke-linejoin="round" d="M 24673,11806 L 3197,11806"/>
 <path fill="none" stroke="rgb(253,215,0)" stroke-linejoin="round" d="M 24673,10773 L 3197,10773"/>
 <path fill="none" stroke="rgb(253,215,0)" stroke-linejoin="round" d="M 24673,9740 L 3197,9740"/>
 <path fill="none" stroke="rgb(253,215,0)" stroke-linejoin="round" d="M 24673,8706 L 3197,8706"/>
 <path fill="none" stroke="rgb(253,215,0)" stroke-linejoin="round" d="M 24673,7673 L 3197,7673"/>
 <path fill="none" stroke="rgb(253,215,0)" stroke-linejoin="round" d="M 24673,6640 L 3197,6640"/>
 <path fill="none" stroke="rgb(253,215,0)" stroke-linejoin="round" d="M 24673,5607 L 3197,5607"/>
 <path fill="none" stroke="rgb(253,215,0)" stroke-linejoin="round" d="M 24673,4574 L 3197,4574"/>
 <path fill="none" stroke="rgb(253,215,0)" stroke-linejoin="round" d="M 24673,3541 L 3197,3541"/>
 <path fill="none" stroke="rgb(253,215,0)" stroke-linejoin="round" d="M 24673,2507 L 3197,2507"/>
 <path fill="none" stroke="rgb(253,215,0)" stroke-linejoin="round" d="M 24673,1474 L 3197,1474"/>
 <path fill="none" stroke="rgb(253,215,0)" stroke-linejoin="round" d="M 24673,440 L 3197,440"/>
 <path fill="none" stroke="rgb(253,215,0)" stroke-linejoin="round" d="M 3197,11956 L 3197,11806"/>
 <path fill="none" stroke="rgb(253,215,0)" stroke-linejoin="round" d="M 3197,11956 L 3197,11806"/>
 <path fill="none" stroke="rgb(253,215,0)" stroke-linejoin="round" d="M 7492,11956 L 7492,11806"/>
 <path fill="none" stroke="rgb(253,215,0)" stroke-linejoin="round" d="M 7492,11956 L 7492,11806"/>
 <path fill="none" stroke="rgb(253,215,0)" stroke-linejoin="round" d="M 11787,11956 L 11787,11806"/>
 <path fill="none" stroke="rgb(253,215,0)" stroke-linejoin="round" d="M 11787,11956 L 11787,11806"/>
 <path fill="none" stroke="rgb(253,215,0)" stroke-linejoin="round" d="M 16082,11956 L 16082,11806"/>
 <path fill="none" stroke="rgb(253,215,0)" stroke-linejoin="round" d="M 16082,11956 L 16082,11806"/>
 <path fill="none" stroke="rgb(253,215,0)" stroke-linejoin="round" d="M 20377,11956 L 20377,11806"/>
 <path fill="none" stroke="rgb(253,215,0)" stroke-linejoin="round" d="M 20377,11956 L 20377,11806"/>
 <path fill="none" stroke="rgb(253,215,0)" stroke-linejoin="round" d="M 24673,11956 L 24673,11806"/>
 <path fill="none" stroke="rgb(253,215,0)" stroke-linejoin="round" d="M 24673,11956 L 24673,11806"/>
 <path fill="none" stroke="rgb(253,215,0)" stroke-linejoin="round" d="M 3197,11806 L 24673,11806"/>
 <path fill="none" stroke="rgb(253,215,0)" stroke-linejoin="round" d="M 3047,11806 L 3197,11806"/>
 <path fill="none" stroke="rgb(253,215,0)" stroke-linejoin="round" d="M 3047,11806 L 3197,11806"/>
 <path fill="none" stroke="rgb(253,215,0)" stroke-linejoin="round" d="M 3047,10773 L 3197,10773"/>
 <path fill="none" stroke="rgb(253,215,0)" stroke-linejoin="round" d="M 3047,10773 L 3197,10773"/>
 <path fill="none" stroke="rgb(253,215,0)" stroke-linejoin="round" d="M 3047,9740 L 3197,9740"/>
 <path fill="none" stroke="rgb(253,215,0)" stroke-linejoin="round" d="M 3047,9740 L 3197,9740"/>
 <path fill="none" stroke="rgb(253,215,0)" stroke-linejoin="round" d="M 3047,8706 L 3197,8706"/>
 <path fill="none" stroke="rgb(253,215,0)" stroke-linejoin="round" d="M 3047,8706 L 3197,8706"/>
 <path fill="none" stroke="rgb(253,215,0)" stroke-linejoin="round" d="M 3047,7673 L 3197,7673"/>
 <path fill="none" stroke="rgb(253,215,0)" stroke-linejoin="round" d="M 3047,7673 L 3197,7673"/>
 <path fill="none" stroke="rgb(253,215,0)" stroke-linejoin="round" d="M 3047,6640 L 3197,6640"/>
 <path fill="none" stroke="rgb(253,215,0)" stroke-linejoin="round" d="M 3047,6640 L 3197,6640"/>
 <path fill="none" stroke="rgb(253,215,0)" stroke-linejoin="round" d="M 3047,5607 L 3197,5607"/>
 <path fill="none" stroke="rgb(253,215,0)" stroke-linejoin="round" d="M 3047,5607 L 3197,5607"/>
 <path fill="none" stroke="rgb(253,215,0)" stroke-linejoin="round" d="M 3047,4574 L 3197,4574"/>
 <path fill="none" stroke="rgb(253,215,0)" stroke-linejoin="round" d="M 3047,4574 L 3197,4574"/>
 <path fill="none" stroke="rgb(253,215,0)" stroke-linejoin="round" d="M 3047,3541 L 3197,3541"/>
 <path fill="none" stroke="rgb(253,215,0)" stroke-linejoin="round" d="M 3047,3541 L 3197,3541"/>
 <path fill="none" stroke="rgb(253,215,0)" stroke-linejoin="round" d="M 3047,2507 L 3197,2507"/>
 <path fill="none" stroke="rgb(253,215,0)" stroke-linejoin="round" d="M 3047,2507 L 3197,2507"/>
 <path fill="none" stroke="rgb(253,215,0)" stroke-linejoin="round" d="M 3047,1474 L 3197,1474"/>
 <path fill="none" stroke="rgb(253,215,0)" stroke-linejoin="round" d="M 3047,1474 L 3197,1474"/>
 <path fill="none" stroke="rgb(253,215,0)" stroke-linejoin="round" d="M 3047,440 L 3197,440"/>
 <path fill="none" stroke="rgb(253,215,0)" stroke-linejoin="round" d="M 3047,440 L 3197,440"/>
 <path fill="none" stroke="rgb(253,215,0)" stroke-linejoin="round" d="M 3197,11806 L 3197,440"/>
 <path fill="rgb(27,61,47)" stroke="none" d="M 21451,11806 L 23599,11806 23599,2917 21451,2917 21451,11806 Z"/>
 <path fill="rgb(27,61,47)" stroke="none" d="M 17156,11806 L 19303,11806 19303,3217 17156,3217 17156,11806 Z"/>
 <path fill="rgb(27,61,47)" stroke="none" d="M 12860,11806 L 15008,11806 15008,10234 12860,10234 12860,11806 Z"/>
 <path fill="rgb(27,61,47)" stroke="none" d="M 8566,11806 L 10713,11806 10713,10519 8566,10519 8566,11806 Z"/>
 <path fill="rgb(27,61,47)" stroke="none" d="M 4270,11806 L 6418,11806 6418,10880 4270,10880 4270,11806 Z"/>
 <path fill="none" stroke="rgb(159,144,101)" stroke-width="100" stroke-linejoin="round" d="M 5344,11197 L 5344,10880 5344,10563"/>
 <path fill="none" stroke="rgb(159,144,101)" stroke-width="100" stroke-linejoin="round" d="M 5444,11197 L 5244,11197"/>
 <path fill="none" stroke="rgb(159,144,101)" stroke-width="100" stroke-linejoin="round" d="M 5244,10563 L 5444,10563"/>
 <path fill="none" stroke="rgb(159,144,101)" stroke-width="100" stroke-linejoin="round" d="M 9640,10658 L 9640,10519 9640,10380"/>
 <path fill="none" stroke="rgb(159,144,101)" stroke-width="100" stroke-linejoin="round" d="M 9740,10658 L 9540,10658"/>
 <path fill="none" stroke="rgb(159,144,101)" stroke-width="100" stroke-linejoin="round" d="M 9540,10380 L 9740,10380"/>
 <path fill="none" stroke="rgb(159,144,101)" stroke-width="100" stroke-linejoin="round" d="M 13934,10522 L 13934,10234 13934,9946"/>
 <path fill="none" stroke="rgb(159,144,101)" stroke-width="100" stroke-linejoin="round" d="M 14034,10522 L 13834,10522"/>
 <path fill="none" stroke="rgb(159,144,101)" stroke-width="100" stroke-linejoin="round" d="M 13834,9946 L 14034,9946"/>
 <path fill="none" stroke="rgb(159,144,101)" stroke-width="100" stroke-linejoin="round" d="M 18229,3676 L 18229,3217 18229,2757"/>
 <path fill="none" stroke="rgb(159,144,101)" stroke-width="100" stroke-linejoin="round" d="M 18329,3676 L 18129,3676"/>
 <path fill="none" stroke="rgb(159,144,101)" stroke-width="100" stroke-linejoin="round" d="M 18129,2757 L 18329,2757"/>
 <path fill="none" stroke="rgb(159,144,101)" stroke-width="100" stroke-linejoin="round" d="M 22525,3284 L 22525,2917 22525,2550"/>
 <path fill="none" stroke="rgb(159,144,101)" stroke-width="100" stroke-linejoin="round" d="M 22625,3284 L 22425,3284"/>
 <path fill="none" stroke="rgb(159,144,101)" stroke-width="100" stroke-linejoin="round" d="M 22425,2550 L 22625,2550"/>
 <text class="SVGTextShape"><tspan class="TextParagraph" font-family="Liberation Sans, sans-serif" font-size="423px" font-weight="700"><tspan class="TextPosition" x="3412" y="12426"><tspan fill="rgb(159,144,101)" stroke="none" style="white-space: pre">streamFoldChunks</tspan></tspan></tspan></text>
 <text class="SVGTextShape"><tspan class="TextParagraph" font-family="Liberation Sans, sans-serif" font-size="423px" font-weight="700"><tspan class="TextPosition" x="7774" y="12426"><tspan fill="rgb(159,144,101)" stroke="none" style="white-space: pre">streamFoldStrings</tspan></tspan></tspan></text>
 <text class="SVGTextShape"><tspan class="TextParagraph" font-family="Liberation Sans, sans-serif" font-size="423px" font-weight="700"><tspan class="TextPosition" x="12255" y="12426"><tspan fill="rgb(159,144,101)" stroke="none" style="white-space: pre">fs2ReadAllBytes</tspan></tspan></tspan></text>
 <text class="SVGTextShape"><tspan class="TextParagraph" font-family="Liberation Sans, sans-serif" font-size="423px" font-weight="700"><tspan class="TextPosition" x="16536" y="12426"><tspan fill="rgb(159,144,101)" stroke="none" style="white-space: pre">nioReadAllBytes</tspan></tspan></tspan></text>
 <text class="SVGTextShape"><tspan class="TextParagraph" font-family="Liberation Sans, sans-serif" font-size="423px" font-weight="700"><tspan class="TextPosition" x="20978" y="12426"><tspan fill="rgb(159,144,101)" stroke="none" style="white-space: pre">nioInputStream</tspan></tspan></tspan></text>
 <text class="SVGTextShape"><tspan class="TextParagraph" font-family="Liberation Sans, sans-serif" font-size="353px" font-weight="700"><tspan class="TextPosition" x="2391" y="11927"><tspan fill="rgb(159,144,101)" stroke="none" style="white-space: pre">900</tspan></tspan></tspan></text>
 <text class="SVGTextShape"><tspan class="TextParagraph" font-family="Liberation Sans, sans-serif" font-size="353px" font-weight="700"><tspan class="TextPosition" x="2206" y="10894"><tspan fill="rgb(159,144,101)" stroke="none" style="white-space: pre">1000</tspan></tspan></tspan></text>
 <text class="SVGTextShape"><tspan class="TextParagraph" font-family="Liberation Sans, sans-serif" font-size="353px" font-weight="700"><tspan class="TextPosition" x="2206" y="9861"><tspan fill="rgb(159,144,101)" stroke="none" style="white-space: pre">1100</tspan></tspan></tspan></text>
 <text class="SVGTextShape"><tspan class="TextParagraph" font-family="Liberation Sans, sans-serif" font-size="353px" font-weight="700"><tspan class="TextPosition" x="2206" y="8827"><tspan fill="rgb(159,144,101)" stroke="none" style="white-space: pre">1200</tspan></tspan></tspan></text>
 <text class="SVGTextShape"><tspan class="TextParagraph" font-family="Liberation Sans, sans-serif" font-size="353px" font-weight="700"><tspan class="TextPosition" x="2206" y="7794"><tspan fill="rgb(159,144,101)" stroke="none" style="white-space: pre">1300</tspan></tspan></tspan></text>
 <text class="SVGTextShape"><tspan class="TextParagraph" font-family="Liberation Sans, sans-serif" font-size="353px" font-weight="700"><tspan class="TextPosition" x="2206" y="6761"><tspan fill="rgb(159,144,101)" stroke="none" style="white-space: pre">1400</tspan></tspan></tspan></text>
 <text class="SVGTextShape"><tspan class="TextParagraph" font-family="Liberation Sans, sans-serif" font-size="353px" font-weight="700"><tspan class="TextPosition" x="2206" y="5727"><tspan fill="rgb(159,144,101)" stroke="none" style="white-space: pre">1500</tspan></tspan></tspan></text>
 <text class="SVGTextShape"><tspan class="TextParagraph" font-family="Liberation Sans, sans-serif" font-size="353px" font-weight="700"><tspan class="TextPosition" x="2206" y="4694"><tspan fill="rgb(159,144,101)" stroke="none" style="white-space: pre">1600</tspan></tspan></tspan></text>
 <text class="SVGTextShape"><tspan class="TextParagraph" font-family="Liberation Sans, sans-serif" font-size="353px" font-weight="700"><tspan class="TextPosition" x="2206" y="3661"><tspan fill="rgb(159,144,101)" stroke="none" style="white-space: pre">1700</tspan></tspan></tspan></text>
 <text class="SVGTextShape"><tspan class="TextParagraph" font-family="Liberation Sans, sans-serif" font-size="353px" font-weight="700"><tspan class="TextPosition" x="2206" y="2627"><tspan fill="rgb(159,144,101)" stroke="none" style="white-space: pre">1800</tspan></tspan></tspan></text>
 <text class="SVGTextShape"><tspan class="TextParagraph" font-family="Liberation Sans, sans-serif" font-size="353px" font-weight="700"><tspan class="TextPosition" x="2206" y="1594"><tspan fill="rgb(159,144,101)" stroke="none" style="white-space: pre">1900</tspan></tspan></tspan></text>
 <text class="SVGTextShape"><tspan class="TextParagraph" font-family="Liberation Sans, sans-serif" font-size="353px" font-weight="700"><tspan class="TextPosition" x="2206" y="560"><tspan fill="rgb(159,144,101)" stroke="none" style="white-space: pre">2000</tspan></tspan></tspan></text>
 <text class="SVGTextShape"><tspan class="TextParagraph" font-family="Liberation Sans, sans-serif" font-size="423px" font-weight="700"><tspan class="TextPosition" x="4696" y="11489"><tspan fill="rgb(159,144,101)" stroke="none" style="white-space: pre">989,64</tspan></tspan></tspan></text>
 <text class="SVGTextShape"><tspan class="TextParagraph" font-family="Liberation Sans, sans-serif" font-size="423px" font-weight="700"><tspan class="TextPosition" x="8753" y="11309"><tspan fill="rgb(159,144,101)" stroke="none" style="white-space: pre">1024,592</tspan></tspan></tspan></text>
 <text class="SVGTextShape"><tspan class="TextParagraph" font-family="Liberation Sans, sans-serif" font-size="423px" font-weight="700"><tspan class="TextPosition" x="13048" y="11166"><tspan fill="rgb(159,144,101)" stroke="none" style="white-space: pre">1052,197</tspan></tspan></tspan></text>
 <text class="SVGTextShape"><tspan class="TextParagraph" font-family="Liberation Sans, sans-serif" font-size="423px" font-weight="700"><tspan class="TextPosition" x="17343" y="7657"><tspan fill="rgb(159,144,101)" stroke="none" style="white-space: pre">1731,353</tspan></tspan></tspan></text>
 <text class="SVGTextShape"><tspan class="TextParagraph" font-family="Liberation Sans, sans-serif" font-size="423px" font-weight="700"><tspan class="TextPosition" x="21639" y="7507"><tspan fill="rgb(159,144,101)" stroke="none" style="white-space: pre">1760,377</tspan></tspan></tspan></text>
 <text class="SVGTextShape"><tspan class="TextParagraph" font-family="Liberation Sans, sans-serif" font-size="423px" font-weight="700"><tspan class="TextPosition" x="514" y="6520"><tspan fill="rgb(159,144,101)" stroke="none" style="white-space: pre">ops/s</tspan></tspan></tspan></text>
</svg>