<?xml version="1.0" encoding="UTF-8"?>
<!DOCTYPE svg PUBLIC "-//W3C//DTD SVG 1.1//EN" "http://www.w3.org/Graphics/SVG/1.1/DTD/svg11.dtd">
<svg width="252mm" height="128mm" viewBox="0 0 25200 12800" version="1.1" xmlns="http://www.w3.org/2000/svg" xmlns:xlink="http://www.w3.org/1999/xlink" stroke-width="28.222" stroke-linejoin="round" xml:space="preserve">
 <path fill="none" stroke="none" d="M 12582,12762 L -13,12762 -13,-13 25176,-13 25176,12762 12582,12762 Z"/>
 <path fill="none" stroke="rgb(253,215,0)" stroke-linejoin="round" d="M 14001,11782 L 3330,11782 3330,442 24673,442 24673,11782 14001,11782 Z"/>
 <path fill="none" stroke="rgb(253,215,0)" stroke-linejoin="round" d="M 24672,11780 L 3330,11780"/>
 <path fill="none" stroke="rgb(253,215,0)" stroke-linejoin="round" d="M 24672,10749 L 3330,10749"/>
 <path fill="none" stroke="rgb(253,215,0)" stroke-linejoin="round" d="M 24672,9718 L 3330,9718"/>
 <path fill="none" stroke="rgb(253,215,0)" stroke-linejoin="round" d="M 24672,8687 L 3330,8687"/>
 <path fill="none" stroke="rgb(253,215,0)" stroke-linejoin="round" d="M 24672,7656 L 3330,7656"/>
 <path fill="none" stroke="rgb(253,215,0)" stroke-linejoin="round" d="M 24672,6625 L 3330,6625"/>
 <path fill="none" stroke="rgb(253,215,0)" stroke-linejoin="round" d="M 24672,5595 L 3330,5595"/>
 <path fill="none" stroke="rgb(253,215,0)" stroke-linejoin="round" d="M 24672,4564 L 3330,4564"/>
 <path fill="none" stroke="rgb(253,215,0)" stroke-linejoin="round" d="M 24672,3533 L 3330,3533"/>
 <path fill="none" stroke="rgb(253,215,0)" stroke-linejoin="round" d="M 24672,2502 L 3330,2502"/>
 <path fill="none" stroke="rgb(253,215,0)" stroke-linejoin="round" d="M 24672,1471 L 3330,1471"/>
 <path fill="none" stroke="rgb(253,215,0)" stroke-linejoin="round" d="M 24672,440 L 3330,440"/>
 <path fill="none" stroke="rgb(253,215,0)" stroke-linejoin="round" d="M 3330,11930 L 3330,11780"/>
 <path fill="none" stroke="rgb(253,215,0)" stroke-linejoin="round" d="M 3330,11930 L 3330,11780"/>
 <path fill="none" stroke="rgb(253,215,0)" stroke-linejoin="round" d="M 7598,11930 L 7598,11780"/>
 <path fill="none" stroke="rgb(253,215,0)" stroke-linejoin="round" d="M 7598,11930 L 7598,11780"/>
 <path fill="none" stroke="rgb(253,215,0)" stroke-linejoin="round" d="M 11867,11930 L 11867,11780"/>
 <path fill="none" stroke="rgb(253,215,0)" stroke-linejoin="round" d="M 11867,11930 L 11867,11780"/>
 <path fill="none" stroke="rgb(253,215,0)" stroke-linejoin="round" d="M 16135,11930 L 16135,11780"/>
 <path fill="none" stroke="rgb(253,215,0)" stroke-linejoin="round" d="M 16135,11930 L 16135,11780"/>
 <path fill="none" stroke="rgb(253,215,0)" stroke-linejoin="round" d="M 20404,11930 L 20404,11780"/>
 <path fill="none" stroke="rgb(253,215,0)" stroke-linejoin="round" d="M 20404,11930 L 20404,11780"/>
 <path fill="none" stroke="rgb(253,215,0)" stroke-linejoin="round" d="M 24672,11930 L 24672,11780"/>
 <path fill="none" stroke="rgb(253,215,0)" stroke-linejoin="round" d="M 24672,11930 L 24672,11780"/>
 <path fill="none" stroke="rgb(253,215,0)" stroke-linejoin="round" d="M 3330,11780 L 24672,11780"/>
 <path fill="none" stroke="rgb(253,215,0)" stroke-linejoin="round" d="M 3180,11780 L 3330,11780"/>
 <path fill="none" stroke="rgb(253,215,0)" stroke-linejoin="round" d="M 3180,11780 L 3330,11780"/>
 <path fill="none" stroke="rgb(253,215,0)" stroke-linejoin="round" d="M 3180,10749 L 3330,10749"/>
 <path fill="none" stroke="rgb(253,215,0)" stroke-linejoin="round" d="M 3180,10749 L 3330,10749"/>
 <path fill="none" stroke="rgb(253,215,0)" stroke-linejoin="round" d="M 3180,9718 L 3330,9718"/>
 <path fill="none" stroke="rgb(253,215,0)" stroke-linejoin="round" d="M 3180,9718 L 3330,9718"/>
 <path fill="none" stroke="rgb(253,215,0)" stroke-linejoin="round" d="M 3180,8687 L 3330,8687"/>
 <path fill="none" stroke="rgb(253,215,0)" stroke-linejoin="round" d="M 3180,8687 L 3330,8687"/>
 <path fill="none" stroke="rgb(253,215,0)" stroke-linejoin="round" d="M 3180,7656 L 3330,7656"/>
 <path fill="none" stroke="rgb(253,215,0)" stroke-linejoin="round" d="M 3180,7656 L 3330,7656"/>
 <path fill="none" stroke="rgb(253,215,0)" stroke-linejoin="round" d="M 3180,6625 L 3330,6625"/>
 <path fill="none" stroke="rgb(253,215,0)" stroke-linejoin="round" d="M 3180,6625 L 3330,6625"/>
 <path fill="none" stroke="rgb(253,215,0)" stroke-linejoin="round" d="M 3180,5595 L 3330,5595"/>
 <path fill="none" stroke="rgb(253,215,0)" stroke-linejoin="round" d="M 3180,5595 L 3330,5595"/>
 <path fill="none" stroke="rgb(253,215,0)" stroke-linejoin="round" d="M 3180,4564 L 3330,4564"/>
 <path fill="none" stroke="rgb(253,215,0)" stroke-linejoin="round" d="M 3180,4564 L 3330,4564"/>
 <path fill="none" stroke="rgb(253,215,0)" stroke-linejoin="round" d="M 3180,3533 L 3330,3533"/>
 <path fill="none" stroke="rgb(253,215,0)" stroke-linejoin="round" d="M 3180,3533 L 3330,3533"/>
 <path fill="none" stroke="rgb(253,215,0)" stroke-linejoin="round" d="M 3180,2502 L 3330,2502"/>
 <path fill="none" stroke="rgb(253,215,0)" stroke-linejoin="round" d="M 3180,2502 L 3330,2502"/>
 <path fill="none" stroke="rgb(253,215,0)" stroke-linejoin="round" d="M 3180,1471 L 3330,1471"/>
 <path fill="none" stroke="rgb(253,215,0)" stroke-linejoin="round" d="M 3180,1471 L 3330,1471"/>
 <path fill="none" stroke="rgb(253,215,0)" stroke-linejoin="round" d="M 3180,440 L 3330,440"/>
 <path fill="none" stroke="rgb(253,215,0)" stroke-linejoin="round" d="M 3180,440 L 3330,440"/>
 <path fill="none" stroke="rgb(253,215,0)" stroke-linejoin="round" d="M 3330,11780 L 3330,440"/>
 <path fill="rgb(27,61,47)" stroke="none" d="M 21471,11780 L 23605,11780 23605,2911 21471,2911 21471,11780 Z"/>
 <path fill="rgb(27,61,47)" stroke="none" d="M 17202,11780 L 19336,11780 19336,3210 17202,3210 17202,11780 Z"/>
 <path fill="rgb(27,61,47)" stroke="none" d="M 12933,11780 L 15068,11780 15068,10211 12933,10211 12933,11780 Z"/>
 <path fill="rgb(27,61,47)" stroke="none" d="M 8666,11780 L 10800,11780 10800,10496 8666,10496 8666,11780 Z"/>
 <path fill="rgb(27,61,47)" stroke="none" d="M 4397,11780 L 6531,11780 6531,10856 4397,10856 4397,11780 Z"/>
 <path fill="none" stroke="rgb(159,144,101)" stroke-width="100" stroke-linejoin="round" d="M 5464,11173 L 5464,10856 5464,10540"/>
 <path fill="none" stroke="rgb(159,144,101)" stroke-width="100" stroke-linejoin="round" d="M 5564,11173 L 5364,11173"/>
 <path fill="none" stroke="rgb(159,144,101)" stroke-width="100" stroke-linejoin="round" d="M 5364,10540 L 5564,10540"/>
 <path fill="none" stroke="rgb(159,144,101)" stroke-width="100" stroke-linejoin="round" d="M 9733,10635 L 9733,10496 9733,10357"/>
 <path fill="none" stroke="rgb(159,144,101)" stroke-width="100" stroke-linejoin="round" d="M 9833,10635 L 9633,10635"/>
 <path fill="none" stroke="rgb(159,144,101)" stroke-width="100" stroke-linejoin="round" d="M 9633,10357 L 9833,10357"/>
 <path fill="none" stroke="rgb(159,144,101)" stroke-width="100" stroke-linejoin="round" d="M 14000,10499 L 14000,10211 14000,9924"/>
 <path fill="none" stroke="rgb(159,144,101)" stroke-width="100" stroke-linejoin="round" d="M 14100,10499 L 13900,10499"/>
 <path fill="none" stroke="rgb(159,144,101)" stroke-width="100" stroke-linejoin="round" d="M 13900,9924 L 14100,9924"/>
 <path fill="none" stroke="rgb(159,144,101)" stroke-width="100" stroke-linejoin="round" d="M 18269,3669 L 18269,3210 18269,2752"/>
 <path fill="none" stroke="rgb(159,144,101)" stroke-width="100" stroke-linejoin="round" d="M 18369,3669 L 18169,3669"/>
 <path fill="none" stroke="rgb(159,144,101)" stroke-width="100" stroke-linejoin="round" d="M 18169,2752 L 18369,2752"/>
 <path fill="none" stroke="rgb(159,144,101)" stroke-width="100" stroke-linejoin="round" d="M 22538,3277 L 22538,2911 22538,2545"/>
 <path fill="none" stroke="rgb(159,144,101)" stroke-width="100" stroke-linejoin="round" d="M 22638,3277 L 22438,3277"/>
 <path fill="none" stroke="rgb(159,144,101)" stroke-width="100" stroke-linejoin="round" d="M 22438,2545 L 22638,2545"/>
 <text class="SVGTextShape"><tspan class="TextParagraph" font-family="GT Walsheim Pro Bold" font-size="423px" font-weight="700"><tspan class="TextPosition" x="3532" y="12400"><tspan fill="rgb(159,144,101)" stroke="none" style="white-space: pre">streamFoldChunks</tspan></tspan></tspan></text>
 <text class="SVGTextShape"><tspan class="TextParagraph" font-family="GT Walsheim Pro Bold" font-size="423px" font-weight="700"><tspan class="TextPosition" x="7881" y="12400"><tspan fill="rgb(159,144,101)" stroke="none" style="white-space: pre">streamFoldStrings</tspan></tspan></tspan></text>
 <text class="SVGTextShape"><tspan class="TextParagraph" font-family="GT Walsheim Pro Bold" font-size="423px" font-weight="700"><tspan class="TextPosition" x="12347" y="12400"><tspan fill="rgb(159,144,101)" stroke="none" style="white-space: pre">fs2ReadAllBytes</tspan></tspan></tspan></text>
 <text class="SVGTextShape"><tspan class="TextParagraph" font-family="GT Walsheim Pro Bold" font-size="423px" font-weight="700"><tspan class="TextPosition" x="16629" y="12400"><tspan fill="rgb(159,144,101)" stroke="none" style="white-space: pre">nioReadAllBytes</tspan></tspan></tspan></text>
 <text class="SVGTextShape"><tspan class="TextParagraph" font-family="GT Walsheim Pro Bold" font-size="423px" font-weight="700"><tspan class="TextPosition" x="20964" y="12400"><tspan fill="rgb(159,144,101)" stroke="none" style="white-space: pre">nioInputStream</tspan></tspan></tspan></text>
 <text class="SVGTextShape"><tspan class="TextParagraph" font-family="GT Walsheim Pro Bold" font-size="353px" font-weight="700"><tspan class="TextPosition" x="2445" y="11901"><tspan fill="rgb(159,144,101)" stroke="none" style="white-space: pre">900</tspan></tspan></tspan></text>
 <text class="SVGTextShape"><tspan class="TextParagraph" font-family="GT Walsheim Pro Bold" font-size="353px" font-weight="700"><tspan class="TextPosition" x="2286" y="10870"><tspan fill="rgb(159,144,101)" stroke="none" style="white-space: pre">1000</tspan></tspan></tspan></text>
 <text class="SVGTextShape"><tspan class="TextParagraph" font-family="GT Walsheim Pro Bold" font-size="353px" font-weight="700"><tspan class="TextPosition" x="2339" y="9839"><tspan fill="rgb(159,144,101)" stroke="none" style="white-space: pre">1100</tspan></tspan></tspan></text>
 <text class="SVGTextShape"><tspan class="TextParagraph" font-family="GT Walsheim Pro Bold" font-size="353px" font-weight="700"><tspan class="TextPosition" x="2286" y="8808"><tspan fill="rgb(159,144,101)" stroke="none" style="white-space: pre">1200</tspan></tspan></tspan></text>
 <text class="SVGTextShape"><tspan class="TextParagraph" font-family="GT Walsheim Pro Bold" font-size="353px" font-weight="700"><tspan class="TextPosition" x="2286" y="7777"><tspan fill="rgb(159,144,101)" stroke="none" style="white-space: pre">1300</tspan></tspan></tspan></text>
 <text class="SVGTextShape"><tspan class="TextParagraph" font-family="GT Walsheim Pro Bold" font-size="353px" font-weight="700"><tspan class="TextPosition" x="2286" y="6746"><tspan fill="rgb(159,144,101)" stroke="none" style="white-space: pre">1400</tspan></tspan></tspan></text>
 <text class="SVGTextShape"><tspan class="TextParagraph" font-family="GT Walsheim Pro Bold" font-size="353px" font-weight="700"><tspan class="TextPosition" x="2286" y="5715"><tspan fill="rgb(159,144,101)" stroke="none" style="white-space: pre">1500</tspan></tspan></tspan></text>
 <text class="SVGTextShape"><tspan class="TextParagraph" font-family="GT Walsheim Pro Bold" font-size="353px" font-weight="700"><tspan class="TextPosition" x="2286" y="4684"><tspan fill="rgb(159,144,101)" stroke="none" style="white-space: pre">1600</tspan></tspan></tspan></text>
 <text class="SVGTextShape"><tspan class="TextParagraph" font-family="GT Walsheim Pro Bold" font-size="353px" font-weight="700"><tspan class="TextPosition" x="2313" y="3653"><tspan fill="rgb(159,144,101)" stroke="none" style="white-space: pre">1700</tspan></tspan></tspan></text>
 <text class="SVGTextShape"><tspan class="TextParagraph" font-family="GT Walsheim Pro Bold" font-size="353px" font-weight="700"><tspan class="TextPosition" x="2286" y="2622"><tspan fill="rgb(159,144,101)" stroke="none" style="white-space: pre">1800</tspan></tspan></tspan></text>
 <text class="SVGTextShape"><tspan class="TextParagraph" font-family="GT Walsheim Pro Bold" font-size="353px" font-weight="700"><tspan class="TextPosition" x="2286" y="1591"><tspan fill="rgb(159,144,101)" stroke="none" style="white-space: pre">1900</tspan></tspan></tspan></text>
 <text class="SVGTextShape"><tspan class="TextParagraph" font-family="GT Walsheim Pro Bold" font-size="353px" font-weight="700"><tspan class="TextPosition" x="2233" y="560"><tspan fill="rgb(159,144,101)" stroke="none" style="white-space: pre">2000</tspan></tspan></tspan></text>
 <text class="SVGTextShape"><tspan class="TextParagraph" font-family="GT Walsheim Pro Bold" font-size="423px" font-weight="700"><tspan class="TextPosition" x="4736" y="11451"><tspan fill="rgb(159,144,101)" stroke="none" style="white-space: pre">989,64</tspan></tspan></tspan></text>
 <text class="SVGTextShape"><tspan class="TextParagraph" font-family="GT Walsheim Pro Bold" font-size="423px" font-weight="700"><tspan class="TextPosition" x="8780" y="11271"><tspan fill="rgb(159,144,101)" stroke="none" style="white-space: pre">1024,592</tspan></tspan></tspan></text>
 <text class="SVGTextShape"><tspan class="TextParagraph" font-family="GT Walsheim Pro Bold" font-size="423px" font-weight="700"><tspan class="TextPosition" x="13101" y="11129"><tspan fill="rgb(159,144,101)" stroke="none" style="white-space: pre">1052,197</tspan></tspan></tspan></text>
 <text class="SVGTextShape"><tspan class="TextParagraph" font-family="GT Walsheim Pro Bold" font-size="423px" font-weight="700"><tspan class="TextPosition" x="17370" y="7628"><tspan fill="rgb(159,144,101)" stroke="none" style="white-space: pre">1731,353</tspan></tspan></tspan></text>
 <text class="SVGTextShape"><tspan class="TextParagraph" font-family="GT Walsheim Pro Bold" font-size="423px" font-weight="700"><tspan class="TextPosition" x="21626" y="7478"><tspan fill="rgb(159,144,101)" stroke="none" style="white-space: pre">1760,377</tspan></tspan></tspan></text>
 <text class="SVGTextShape"><tspan class="TextParagraph" font-family="GT Walsheim Pro Bold" font-size="423px" font-weight="700"><tspan class="TextPosition" x="514" y="6507"><tspan fill="rgb(159,144,101)" stroke="none" style="white-space: pre">ops/s</tspan></tspan></tspan></text>
</svg>