<?xml version="1.0" encoding="UTF-8"?>
<!DOCTYPE svg PUBLIC "-//W3C//DTD SVG 1.1//EN" "http://www.w3.org/Graphics/SVG/1.1/DTD/svg11.dtd">
<svg width="219mm" height="128mm" viewBox="0 0 21900 12800" version="1.1" xmlns="http://www.w3.org/2000/svg" xmlns:xlink="http://www.w3.org/1999/xlink" stroke-width="28.222" stroke-linejoin="round" xml:space="preserve">
 <path fill="none" stroke="none" d="M 10931,12762 L -13,12762 -13,-13 21875,-13 21875,12762 10931,12762 Z"/>
 <path fill="none" stroke="rgb(253,215,0)" stroke-linejoin="round" d="M 12284,11807 L 3131,11807 3131,441 21438,441 21438,11807 12284,11807 Z"/>
 <path fill="none" stroke="rgb(253,215,0)" stroke-linejoin="round" d="M 21438,11806 L 3131,11806"/>
 <path fill="none" stroke="rgb(253,215,0)" stroke-linejoin="round" d="M 21438,10543 L 3131,10543"/>
 <path fill="none" stroke="rgb(253,215,0)" stroke-linejoin="round" d="M 21438,9279 L 3131,9279"/>
 <path fill="none" stroke="rgb(253,215,0)" stroke-linejoin="round" d="M 21438,8017 L 3131,8017"/>
 <path fill="none" stroke="rgb(253,215,0)" stroke-linejoin="round" d="M 21438,6754 L 3131,6754"/>
 <path fill="none" stroke="rgb(253,215,0)" stroke-linejoin="round" d="M 21438,5492 L 3131,5492"/>
 <path fill="none" stroke="rgb(253,215,0)" stroke-linejoin="round" d="M 21438,4229 L 3131,4229"/>
 <path fill="none" stroke="rgb(253,215,0)" stroke-linejoin="round" d="M 21438,2966 L 3131,2966"/>
 <path fill="none" stroke="rgb(253,215,0)" stroke-linejoin="round" d="M 21438,1703 L 3131,1703"/>
 <path fill="none" stroke="rgb(253,215,0)" stroke-linejoin="round" d="M 21438,440 L 3131,440"/>
 <path fill="none" stroke="rgb(253,215,0)" stroke-linejoin="round" d="M 3131,11956 L 3131,11806"/>
 <path fill="none" stroke="rgb(253,215,0)" stroke-linejoin="round" d="M 3131,11956 L 3131,11806"/>
 <path fill="none" stroke="rgb(253,215,0)" stroke-linejoin="round" d="M 12284,11956 L 12284,11806"/>
 <path fill="none" stroke="rgb(253,215,0)" stroke-linejoin="round" d="M 12284,11956 L 12284,11806"/>
 <path fill="none" stroke="rgb(253,215,0)" stroke-linejoin="round" d="M 21438,11956 L 21438,11806"/>
 <path fill="none" stroke="rgb(253,215,0)" stroke-linejoin="round" d="M 21438,11956 L 21438,11806"/>
 <path fill="none" stroke="rgb(253,215,0)" stroke-linejoin="round" d="M 3131,11806 L 21438,11806"/>
 <path fill="none" stroke="rgb(253,215,0)" stroke-linejoin="round" d="M 2981,11806 L 3131,11806"/>
 <path fill="none" stroke="rgb(253,215,0)" stroke-linejoin="round" d="M 2981,11806 L 3131,11806"/>
 <path fill="none" stroke="rgb(253,215,0)" stroke-linejoin="round" d="M 2981,10543 L 3131,10543"/>
 <path fill="none" stroke="rgb(253,215,0)" stroke-linejoin="round" d="M 2981,10543 L 3131,10543"/>
 <path fill="none" stroke="rgb(253,215,0)" stroke-linejoin="round" d="M 2981,9280 L 3131,9280"/>
 <path fill="none" stroke="rgb(253,215,0)" stroke-linejoin="round" d="M 2981,9280 L 3131,9280"/>
 <path fill="none" stroke="rgb(253,215,0)" stroke-linejoin="round" d="M 2981,8017 L 3131,8017"/>
 <path fill="none" stroke="rgb(253,215,0)" stroke-linejoin="round" d="M 2981,8017 L 3131,8017"/>
 <path fill="none" stroke="rgb(253,215,0)" stroke-linejoin="round" d="M 2981,6754 L 3131,6754"/>
 <path fill="none" stroke="rgb(253,215,0)" stroke-linejoin="round" d="M 2981,6754 L 3131,6754"/>
 <path fill="none" stroke="rgb(253,215,0)" stroke-linejoin="round" d="M 2981,5492 L 3131,5492"/>
 <path fill="none" stroke="rgb(253,215,0)" stroke-linejoin="round" d="M 2981,5492 L 3131,5492"/>
 <path fill="none" stroke="rgb(253,215,0)" stroke-linejoin="round" d="M 2981,4229 L 3131,4229"/>
 <path fill="none" stroke="rgb(253,215,0)" stroke-linejoin="round" d="M 2981,4229 L 3131,4229"/>
 <path fill="none" stroke="rgb(253,215,0)" stroke-linejoin="round" d="M 2981,2966 L 3131,2966"/>
 <path fill="none" stroke="rgb(253,215,0)" stroke-linejoin="round" d="M 2981,2966 L 3131,2966"/>
 <path fill="none" stroke="rgb(253,215,0)" stroke-linejoin="round" d="M 2981,1703 L 3131,1703"/>
 <path fill="none" stroke="rgb(253,215,0)" stroke-linejoin="round" d="M 2981,1703 L 3131,1703"/>
 <path fill="none" stroke="rgb(253,215,0)" stroke-linejoin="round" d="M 2981,440 L 3131,440"/>
 <path fill="none" stroke="rgb(253,215,0)" stroke-linejoin="round" d="M 2981,440 L 3131,440"/>
 <path fill="none" stroke="rgb(253,215,0)" stroke-linejoin="round" d="M 3131,11806 L 3131,440"/>
 <path fill="rgb(27,61,47)" stroke="none" d="M 14572,11806 L 19149,11806 19149,2203 14572,2203 14572,11806 Z"/>
 <path fill="rgb(27,61,47)" stroke="none" d="M 5419,11806 L 9996,11806 9996,2570 5419,2570 5419,11806 Z"/>
 <path fill="none" stroke="rgb(159,144,101)" stroke-width="100" stroke-linejoin="round" d="M 7708,3131 L 7708,2570 7708,2008"/>
 <path fill="none" stroke="rgb(159,144,101)" stroke-width="100" stroke-linejoin="round" d="M 7808,3131 L 7608,3131"/>
 <path fill="none" stroke="rgb(159,144,101)" stroke-width="100" stroke-linejoin="round" d="M 7608,2008 L 7808,2008"/>
 <path fill="none" stroke="rgb(159,144,101)" stroke-width="100" stroke-linejoin="round" d="M 16861,2651 L 16861,2203 16861,1754"/>
 <path fill="none" stroke="rgb(159,144,101)" stroke-width="100" stroke-linejoin="round" d="M 16961,2651 L 16761,2651"/>
 <path fill="none" stroke="rgb(159,144,101)" stroke-width="100" stroke-linejoin="round" d="M 16761,1754 L 16961,1754"/>
 <text class="SVGTextShape"><tspan class="TextParagraph" font-family="Liberation Sans, sans-serif" font-size="423px" font-weight="700"><tspan class="TextPosition" x="6014" y="12426"><tspan fill="rgb(159,144,101)" stroke="none" style="white-space: pre">nioReadAllBytes</tspan></tspan></tspan></text>
 <text class="SVGTextShape"><tspan class="TextParagraph" font-family="Liberation Sans, sans-serif" font-size="423px" font-weight="700"><tspan class="TextPosition" x="15314" y="12426"><tspan fill="rgb(159,144,101)" stroke="none" style="white-space: pre">nioInputStream</tspan></tspan></tspan></text>
 <text class="SVGTextShape"><tspan class="TextParagraph" font-family="Liberation Sans, sans-serif" font-size="353px" font-weight="700"><tspan class="TextPosition" x="2140" y="11927"><tspan fill="rgb(159,144,101)" stroke="none" style="white-space: pre">1000</tspan></tspan></tspan></text>
 <text class="SVGTextShape"><tspan class="TextParagraph" font-family="Liberation Sans, sans-serif" font-size="353px" font-weight="700"><tspan class="TextPosition" x="2140" y="10664"><tspan fill="rgb(159,144,101)" stroke="none" style="white-space: pre">1100</tspan></tspan></tspan></text>
 <text class="SVGTextShape"><tspan class="TextParagraph" font-family="Liberation Sans, sans-serif" font-size="353px" font-weight="700"><tspan class="TextPosition" x="2140" y="9401"><tspan fill="rgb(159,144,101)" stroke="none" style="white-space: pre">1200</tspan></tspan></tspan></text>
 <text class="SVGTextShape"><tspan class="TextParagraph" font-family="Liberation Sans, sans-serif" font-size="353px" font-weight="700"><tspan class="TextPosition" x="2140" y="8138"><tspan fill="rgb(159,144,101)" stroke="none" style="white-space: pre">1300</tspan></tspan></tspan></text>
 <text class="SVGTextShape"><tspan class="TextParagraph" font-family="Liberation Sans, sans-serif" font-size="353px" font-weight="700"><tspan class="TextPosition" x="2140" y="6875"><tspan fill="rgb(159,144,101)" stroke="none" style="white-space: pre">1400</tspan></tspan></tspan></text>
 <text class="SVGTextShape"><tspan class="TextParagraph" font-family="Liberation Sans, sans-serif" font-size="353px" font-weight="700"><tspan class="TextPosition" x="2140" y="5612"><tspan fill="rgb(159,144,101)" stroke="none" style="white-space: pre">1500</tspan></tspan></tspan></text>
 <text class="SVGTextShape"><tspan class="TextParagraph" font-family="Liberation Sans, sans-serif" font-size="353px" font-weight="700"><tspan class="TextPosition" x="2140" y="4349"><tspan fill="rgb(159,144,101)" stroke="none" style="white-space: pre">1600</tspan></tspan></tspan></text>
 <text class="SVGTextShape"><tspan class="TextParagraph" font-family="Liberation Sans, sans-serif" font-size="353px" font-weight="700"><tspan class="TextPosition" x="2140" y="3086"><tspan fill="rgb(159,144,101)" stroke="none" style="white-space: pre">1700</tspan></tspan></tspan></text>
 <text class="SVGTextShape"><tspan class="TextParagraph" font-family="Liberation Sans, sans-serif" font-size="353px" font-weight="700"><tspan class="TextPosition" x="2140" y="1823"><tspan fill="rgb(159,144,101)" stroke="none" style="white-space: pre">1800</tspan></tspan></tspan></text>
 <text class="SVGTextShape"><tspan class="TextParagraph" font-family="Liberation Sans, sans-serif" font-size="353px" font-weight="700"><tspan class="TextPosition" x="2140" y="560"><tspan fill="rgb(159,144,101)" stroke="none" style="white-space: pre">1900</tspan></tspan></tspan></text>
 <text class="SVGTextShape"><tspan class="TextParagraph" font-family="Liberation Sans, sans-serif" font-size="423px" font-weight="700"><tspan class="TextPosition" x="6821" y="7333"><tspan fill="rgb(159,144,101)" stroke="none" style="white-space: pre">1731,353</tspan></tspan></tspan></text>
 <text class="SVGTextShape"><tspan class="TextParagraph" font-family="Liberation Sans, sans-serif" font-size="423px" font-weight="700"><tspan class="TextPosition" x="15975" y="7150"><tspan fill="rgb(159,144,101)" stroke="none" style="white-space: pre">1760,377</tspan></tspan></tspan></text>
 <text class="SVGTextShape"><tspan class="TextParagraph" font-family="Liberation Sans, sans-serif" font-size="423px" font-weight="700"><tspan class="TextPosition" x="514" y="6520"><tspan fill="rgb(159,144,101)" stroke="none" style="white-space: pre">ops/s</tspan></tspan></tspan></text>
</svg>