<?xml version="1.0" encoding="UTF-8"?>
<!DOCTYPE svg PUBLIC "-//W3C//DTD SVG 1.1//EN" "http://www.w3.org/Graphics/SVG/1.1/DTD/svg11.dtd">
<svg width="219mm" height="128mm" viewBox="0 0 21900 12800" version="1.1" xmlns="http://www.w3.org/2000/svg" xmlns:xlink="http://www.w3.org/1999/xlink" stroke-width="28.222" stroke-linejoin="round" xml:space="preserve">
 <path fill="none" stroke="none" d="M 10931,12762 L -13,12762 -13,-13 21875,-13 21875,12762 10931,12762 Z"/>
 <path fill="none" stroke="rgb(253,215,0)" stroke-linejoin="round" d="M 12364,11807 L 3290,11807 3290,441 21438,441 21438,11807 12364,11807 Z"/>
 <path fill="none" stroke="rgb(253,215,0)" stroke-linejoin="round" d="M 21438,11806 L 3290,11806"/>
 <path fill="none" stroke="rgb(253,215,0)" stroke-linejoin="round" d="M 21438,10543 L 3290,10543"/>
 <path fill="none" stroke="rgb(253,215,0)" stroke-linejoin="round" d="M 21438,9280 L 3290,9280"/>
 <path fill="none" stroke="rgb(253,215,0)" stroke-linejoin="round" d="M 21438,8016 L 3290,8016"/>
 <path fill="none" stroke="rgb(253,215,0)" stroke-linejoin="round" d="M 21438,6754 L 3290,6754"/>
 <path fill="none" stroke="rgb(253,215,0)" stroke-linejoin="round" d="M 21438,5492 L 3290,5492"/>
 <path fill="none" stroke="rgb(253,215,0)" stroke-linejoin="round" d="M 21438,4229 L 3290,4229"/>
 <path fill="none" stroke="rgb(253,215,0)" stroke-linejoin="round" d="M 21438,2966 L 3290,2966"/>
 <path fill="none" stroke="rgb(253,215,0)" stroke-linejoin="round" d="M 21438,1703 L 3290,1703"/>
 <path fill="none" stroke="rgb(253,215,0)" stroke-linejoin="round" d="M 21438,440 L 3290,440"/>
 <path fill="none" stroke="rgb(253,215,0)" stroke-linejoin="round" d="M 3290,11956 L 3290,11806"/>
 <path fill="none" stroke="rgb(253,215,0)" stroke-linejoin="round" d="M 3290,11956 L 3290,11806"/>
 <path fill="none" stroke="rgb(253,215,0)" stroke-linejoin="round" d="M 9339,11956 L 9339,11806"/>
 <path fill="none" stroke="rgb(253,215,0)" stroke-linejoin="round" d="M 9339,11956 L 9339,11806"/>
 <path fill="none" stroke="rgb(253,215,0)" stroke-linejoin="round" d="M 15388,11956 L 15388,11806"/>
 <path fill="none" stroke="rgb(253,215,0)" stroke-linejoin="round" d="M 15388,11956 L 15388,11806"/>
 <path fill="none" stroke="rgb(253,215,0)" stroke-linejoin="round" d="M 21438,11956 L 21438,11806"/>
 <path fill="none" stroke="rgb(253,215,0)" stroke-linejoin="round" d="M 21438,11956 L 21438,11806"/>
 <path fill="none" stroke="rgb(253,215,0)" stroke-linejoin="round" d="M 3290,11806 L 21438,11806"/>
 <path fill="none" stroke="rgb(253,215,0)" stroke-linejoin="round" d="M 3140,11806 L 3290,11806"/>
 <path fill="none" stroke="rgb(253,215,0)" stroke-linejoin="round" d="M 3140,11806 L 3290,11806"/>
 <path fill="none" stroke="rgb(253,215,0)" stroke-linejoin="round" d="M 3140,10543 L 3290,10543"/>
 <path fill="none" stroke="rgb(253,215,0)" stroke-linejoin="round" d="M 3140,10543 L 3290,10543"/>
 <path fill="none" stroke="rgb(253,215,0)" stroke-linejoin="round" d="M 3140,9280 L 3290,9280"/>
 <path fill="none" stroke="rgb(253,215,0)" stroke-linejoin="round" d="M 3140,9280 L 3290,9280"/>
 <path fill="none" stroke="rgb(253,215,0)" stroke-linejoin="round" d="M 3140,8017 L 3290,8017"/>
 <path fill="none" stroke="rgb(253,215,0)" stroke-linejoin="round" d="M 3140,8017 L 3290,8017"/>
 <path fill="none" stroke="rgb(253,215,0)" stroke-linejoin="round" d="M 3140,6754 L 3290,6754"/>
 <path fill="none" stroke="rgb(253,215,0)" stroke-linejoin="round" d="M 3140,6754 L 3290,6754"/>
 <path fill="none" stroke="rgb(253,215,0)" stroke-linejoin="round" d="M 3140,5492 L 3290,5492"/>
 <path fill="none" stroke="rgb(253,215,0)" stroke-linejoin="round" d="M 3140,5492 L 3290,5492"/>
 <path fill="none" stroke="rgb(253,215,0)" stroke-linejoin="round" d="M 3140,4229 L 3290,4229"/>
 <path fill="none" stroke="rgb(253,215,0)" stroke-linejoin="round" d="M 3140,4229 L 3290,4229"/>
 <path fill="none" stroke="rgb(253,215,0)" stroke-linejoin="round" d="M 3140,2966 L 3290,2966"/>
 <path fill="none" stroke="rgb(253,215,0)" stroke-linejoin="round" d="M 3140,2966 L 3290,2966"/>
 <path fill="none" stroke="rgb(253,215,0)" stroke-linejoin="round" d="M 3140,1703 L 3290,1703"/>
 <path fill="none" stroke="rgb(253,215,0)" stroke-linejoin="round" d="M 3140,1703 L 3290,1703"/>
 <path fill="none" stroke="rgb(253,215,0)" stroke-linejoin="round" d="M 3140,440 L 3290,440"/>
 <path fill="none" stroke="rgb(253,215,0)" stroke-linejoin="round" d="M 3140,440 L 3290,440"/>
 <path fill="none" stroke="rgb(253,215,0)" stroke-linejoin="round" d="M 3290,11806 L 3290,440"/>
 <path fill="rgb(27,61,47)" stroke="none" d="M 16900,11806 L 19925,11806 19925,1307 16900,1307 16900,11806 Z"/>
 <path fill="rgb(27,61,47)" stroke="none" d="M 10852,11806 L 13875,11806 13875,10232 10852,10232 10852,11806 Z"/>
 <path fill="rgb(27,61,47)" stroke="none" d="M 4802,11806 L 7827,11806 7827,10673 4802,10673 4802,11806 Z"/>
 <path fill="none" stroke="rgb(159,144,101)" stroke-width="100" stroke-linejoin="round" d="M 6314,11061 L 6314,10673 6314,10286"/>
 <path fill="none" stroke="rgb(159,144,101)" stroke-width="100" stroke-linejoin="round" d="M 6414,11061 L 6214,11061"/>
 <path fill="none" stroke="rgb(159,144,101)" stroke-width="100" stroke-linejoin="round" d="M 6214,10286 L 6414,10286"/>
 <path fill="none" stroke="rgb(159,144,101)" stroke-width="100" stroke-linejoin="round" d="M 12363,10402 L 12363,10232 12363,10062"/>
 <path fill="none" stroke="rgb(159,144,101)" stroke-width="100" stroke-linejoin="round" d="M 12463,10402 L 12263,10402"/>
 <path fill="none" stroke="rgb(159,144,101)" stroke-width="100" stroke-linejoin="round" d="M 12263,10062 L 12463,10062"/>
 <path fill="none" stroke="rgb(159,144,101)" stroke-width="100" stroke-linejoin="round" d="M 18413,1868 L 18413,1307 18413,745"/>
 <path fill="none" stroke="rgb(159,144,101)" stroke-width="100" stroke-linejoin="round" d="M 18513,1868 L 18313,1868"/>
 <path fill="none" stroke="rgb(159,144,101)" stroke-width="100" stroke-linejoin="round" d="M 18313,745 L 18513,745"/>
 <text class="SVGTextShape"><tspan class="TextParagraph" font-family="Liberation Sans, sans-serif" font-size="423px" font-weight="700"><tspan class="TextPosition" x="4382" y="12426"><tspan fill="rgb(159,144,101)" stroke="none" style="white-space: pre">streamFoldChunks</tspan></tspan></tspan></text>
 <text class="SVGTextShape"><tspan class="TextParagraph" font-family="Liberation Sans, sans-serif" font-size="423px" font-weight="700"><tspan class="TextPosition" x="10498" y="12426"><tspan fill="rgb(159,144,101)" stroke="none" style="white-space: pre">streamFoldStrings</tspan></tspan></tspan></text>
 <text class="SVGTextShape"><tspan class="TextParagraph" font-family="Liberation Sans, sans-serif" font-size="423px" font-weight="700"><tspan class="TextPosition" x="16720" y="12426"><tspan fill="rgb(159,144,101)" stroke="none" style="white-space: pre">nioReadAllBytes</tspan></tspan></tspan></text>
 <text class="SVGTextShape"><tspan class="TextParagraph" font-family="Liberation Sans, sans-serif" font-size="353px" font-weight="700"><tspan class="TextPosition" x="2484" y="11927"><tspan fill="rgb(159,144,101)" stroke="none" style="white-space: pre">900</tspan></tspan></tspan></text>
 <text class="SVGTextShape"><tspan class="TextParagraph" font-family="Liberation Sans, sans-serif" font-size="353px" font-weight="700"><tspan class="TextPosition" x="2299" y="10664"><tspan fill="rgb(159,144,101)" stroke="none" style="white-space: pre">1000</tspan></tspan></tspan></text>
 <text class="SVGTextShape"><tspan class="TextParagraph" font-family="Liberation Sans, sans-serif" font-size="353px" font-weight="700"><tspan class="TextPosition" x="2299" y="9401"><tspan fill="rgb(159,144,101)" stroke="none" style="white-space: pre">1100</tspan></tspan></tspan></text>
 <text class="SVGTextShape"><tspan class="TextParagraph" font-family="Liberation Sans, sans-serif" font-size="353px" font-weight="700"><tspan class="TextPosition" x="2299" y="8138"><tspan fill="rgb(159,144,101)" stroke="none" style="white-space: pre">1200</tspan></tspan></tspan></text>
 <text class="SVGTextShape"><tspan class="TextParagraph" font-family="Liberation Sans, sans-serif" font-size="353px" font-weight="700"><tspan class="TextPosition" x="2299" y="6875"><tspan fill="rgb(159,144,101)" stroke="none" style="white-space: pre">1300</tspan></tspan></tspan></text>
 <text class="SVGTextShape"><tspan class="TextParagraph" font-family="Liberation Sans, sans-serif" font-size="353px" font-weight="700"><tspan class="TextPosition" x="2299" y="5612"><tspan fill="rgb(159,144,101)" stroke="none" style="white-space: pre">1400</tspan></tspan></tspan></text>
 <text class="SVGTextShape"><tspan class="TextParagraph" font-family="Liberation Sans, sans-serif" font-size="353px" font-weight="700"><tspan class="TextPosition" x="2299" y="4349"><tspan fill="rgb(159,144,101)" stroke="none" style="white-space: pre">1500</tspan></tspan></tspan></text>
 <text class="SVGTextShape"><tspan class="TextParagraph" font-family="Liberation Sans, sans-serif" font-size="353px" font-weight="700"><tspan class="TextPosition" x="2299" y="3086"><tspan fill="rgb(159,144,101)" stroke="none" style="white-space: pre">1600</tspan></tspan></tspan></text>
 <text class="SVGTextShape"><tspan class="TextParagraph" font-family="Liberation Sans, sans-serif" font-size="353px" font-weight="700"><tspan class="TextPosition" x="2299" y="1823"><tspan fill="rgb(159,144,101)" stroke="none" style="white-space: pre">1700</tspan></tspan></tspan></text>
 <text class="SVGTextShape"><tspan class="TextParagraph" font-family="Liberation Sans, sans-serif" font-size="353px" font-weight="700"><tspan class="TextPosition" x="2299" y="560"><tspan fill="rgb(159,144,101)" stroke="none" style="white-space: pre">1800</tspan></tspan></tspan></text>
 <text class="SVGTextShape"><tspan class="TextParagraph" font-family="Liberation Sans, sans-serif" font-size="423px" font-weight="700"><tspan class="TextPosition" x="5666" y="11385"><tspan fill="rgb(159,144,101)" stroke="none" style="white-space: pre">989,64</tspan></tspan></tspan></text>
 <text class="SVGTextShape"><tspan class="TextParagraph" font-family="Liberation Sans, sans-serif" font-size="423px" font-weight="700"><tspan class="TextPosition" x="11477" y="11165"><tspan fill="rgb(159,144,101)" stroke="none" style="white-space: pre">1024,592</tspan></tspan></tspan></text>
 <text class="SVGTextShape"><tspan class="TextParagraph" font-family="Liberation Sans, sans-serif" font-size="423px" font-weight="700"><tspan class="TextPosition" x="17527" y="6702"><tspan fill="rgb(159,144,101)" stroke="none" style="white-space: pre">1731,353</tspan></tspan></tspan></text>
 <text class="SVGTextShape"><tspan class="TextParagraph" font-family="DejaVu Sans, sans-serif" font-size="423px" font-weight="700"><tspan class="TextPosition" x="514" y="6521"><tspan fill="rgb(159,144,101)" stroke="none" style="white-space: pre">ops/s</tspan></tspan></tspan></text>
</svg>